<svg xmlns="http://www.w3.org/2000/svg" xmlns:lucid="lucid" width="330" height="258.67"><g lucid:page-tab-id="0_0"><path d="M20 32a12 12 0 0 1 12-12h125.33a12 12 0 0 1 12 12v194.67a12 12 0 0 1-12 12H32a12 12 0 0 1-12-12zM186.67 132a12 12 0 0 1 12-12H298a12 12 0 0 1 12 12v94.67a12 12 0 0 1-12 12h-99.33a12 12 0 0 1-12-12zM244.1 24.24a6 6 0 0 1 8.48 0l20.18 20.18a2.48 2.48 0 0 1-1.76 4.25h-2.33a6 6 0 0 0-6 6v20.66a6 6 0 0 0 6 6H271a2.48 2.48 0 0 1 1.76 4.25l-20.18 20.18a6 6 0 0 1-8.5 0l-20.17-20.18a2.48 2.48 0 0 1 1.77-4.25H228a6 6 0 0 0 6-6V54.67a6 6 0 0 0-6-6h-2.33a2.48 2.48 0 0 1-1.76-4.25z" fill="#e21a53"/></g></svg>