<?xml version="1.0" encoding="UTF-8"?><svg id="b" xmlns="http://www.w3.org/2000/svg" width="567.73" height="222.21" viewBox="0 0 567.73 222.21"><g id="c"><g><path d="M493.01,222.21c41.9,0,74.73-30.72,74.73-69.94v-36.72c0-39.22-33-69.94-75.12-69.94h-52.69c-25.14,0-48.52,11.68-62.53,31.24l-2.55,3.56-2.56-3.55c-14.09-19.56-37.59-31.24-62.87-31.24h-111.44v40.9l-5.75-8.5c-13.89-20.54-37.67-32.8-63.61-32.8h-51.4V0H0V151.87c0,39.44,33.52,70.34,76.32,70.34h52.69c24.79,0,47.04-10.67,61.05-29.28l2.48-3.3,2.52,3.27c14.16,18.36,37.37,29.31,62.07,29.31h128.32l-.07-15-.03-6.66,5.16,4.21c13.81,11.25,31.5,17.45,49.82,17.45h52.68Z" fill="#1e2022"/><path d="M76.32,192.18h52.68c29.17,0,51.16-20.11,51.16-46.77v-36.72c0-25.57-23.13-46.37-51.56-46.37h-57.65v26.89h57.65c11.84,0,21.48,8.74,21.48,19.48v36.72c0,11.06-9.03,19.08-21.48,19.08h-52.68c-12.49,0-22.28-8.38-22.28-19.08V17.1H23.57V145.41c0,26.23,23.17,46.77,52.75,46.77Z" fill="#fbf2e3"/><path d="M257.13,192.18h104.64l-.4-83.08c0-25.57-23.31-46.38-51.96-46.38h-87.88v27.29h87.88c8.22,0,15.56,3.21,19.64,8.59,1.57,2.07,2.39,4.72,2.38,7.66l-.14,25.59v33.05s-74.56,0-74.56,0c-12.05,0-21.48-7.51-21.48-17.09s9.64-17.09,21.48-17.09h57.4v-26.49h-57.4c-27.95,0-51.56,19.95-51.56,43.58s23.31,44.38,51.96,44.38Z" fill="#fbf2e3"/><path d="M492.61,62.72h-52.68c-28.43,0-51.56,20.8-51.56,46.37v36.72c0,12.53,5.41,24.23,15.24,32.93,9.78,8.66,22.82,13.44,36.72,13.44h52.68c28.69,0,51.16-20.37,51.16-46.37v-36.72c0-26-22.65-46.37-51.56-46.37Zm19.19,75.05c0,15.6-13.4,27.82-30.51,27.82h-29.61c-17.07,0-30.96-12.48-30.96-27.82v-20.63c0-15.34,13.79-27.82,30.73-27.82h29.61c17.23,0,30.73,12.22,30.73,27.82v20.63Z" fill="#fbf2e3"/></g></g></svg>