<?xml version="1.0" encoding="UTF-8"?><svg id="b" xmlns="http://www.w3.org/2000/svg" width="567.73" height="222.21" viewBox="0 0 567.73 222.21"><g id="c"><g><path d="M481.07,89.31h-29.61c-16.94,0-30.73,12.48-30.73,27.82v20.63c0,15.34,13.89,27.82,30.96,27.82h29.61c17.11,0,30.51-12.22,30.51-27.82v-20.63c0-15.6-13.5-27.82-30.73-27.82Z" fill="#fbf2e3"/><path d="M492.61,45.61h-52.69c-25.14,0-48.52,11.68-62.53,31.24l-2.55,3.56-2.56-3.55c-14.09-19.56-37.59-31.24-62.87-31.24h-111.44v40.9l-5.75-8.5c-13.89-20.54-37.67-32.8-63.61-32.8h-51.4V0H0V151.87c0,39.44,33.52,70.34,76.32,70.34h52.69c24.79,0,47.04-10.67,61.05-29.28l2.48-3.3,2.52,3.27c14.16,18.36,37.37,29.31,62.07,29.31h128.32l-.07-15-.03-6.66,5.16,4.21c13.81,11.25,31.5,17.45,49.82,17.45h52.68c41.9,0,74.73-30.72,74.73-69.94v-36.72c0-39.22-33-69.94-75.12-69.94ZM180.17,145.41c0,26.66-21.99,46.77-51.16,46.77h-52.68c-29.58,0-52.75-20.54-52.75-46.77V17.1h30.08V145.41c0,10.7,9.79,19.08,22.28,19.08h52.68c12.44,0,21.48-8.03,21.48-19.08v-36.72c0-10.74-9.63-19.48-21.48-19.48h-57.65v-26.89h57.65c28.43,0,51.56,20.8,51.56,46.37v36.72Zm76.96,46.77c-28.65,0-51.96-19.91-51.96-44.38s23.61-43.58,51.56-43.58h57.4v26.49h-57.4c-11.84,0-21.48,7.67-21.48,17.09s9.43,17.09,21.48,17.09h74.56v-33.05s.13-25.59,.13-25.59c.02-2.94-.81-5.59-2.38-7.66-4.08-5.38-11.42-8.59-19.64-8.59h-87.88v-27.29h87.88c28.65,0,51.96,20.8,51.96,46.38l.4,83.08h-104.64Zm287.04-46.37c0,26-22.47,46.37-51.16,46.37h-52.68c-13.9,0-26.94-4.77-36.72-13.44-9.83-8.71-15.24-20.4-15.24-32.93v-36.72c0-25.57,23.13-46.37,51.56-46.37h52.68c28.91,0,51.56,20.37,51.56,46.37v36.72Z" fill="#fbf2e3"/></g></g></svg>