<?xml version="1.0" encoding="UTF-8"?><svg id="b" xmlns="http://www.w3.org/2000/svg" width="471.23" height="406.8" viewBox="0 0 471.23 406.8"><g id="c"><g><path d="M409.21,406.8c34.78,0,62.03-25.5,62.03-58.05v-30.48c0-32.55-27.39-58.05-62.36-58.05h-43.73c-20.87,0-40.27,9.69-51.9,25.93l-2.12,2.95-2.12-2.95c-11.7-16.24-31.2-25.93-52.19-25.93h-92.5v33.95l-4.77-7.06c-11.53-17.05-31.27-27.22-52.79-27.22h-42.66v-37.53H0v126.06c0,32.74,27.83,58.38,63.35,58.38h43.73c20.58,0,39.05-8.86,50.67-24.31l2.06-2.74,2.09,2.71c11.76,15.24,31.02,24.33,51.52,24.33h106.51l-.06-12.45-.03-5.53,4.29,3.49c11.46,9.34,26.15,14.48,41.35,14.48h43.73Z" fill="#1e2022"/><path d="M63.35,381.87h43.73c24.21,0,42.46-16.69,42.46-38.82v-30.48c0-21.22-19.2-38.49-42.79-38.49H58.9v22.32h47.85c9.83,0,17.83,7.26,17.83,16.17v30.48c0,9.18-7.5,15.84-17.83,15.84H63.02c-10.37,0-18.49-6.96-18.49-15.84v-106.5H19.56v106.5c0,21.77,19.23,38.82,43.79,38.82Z" fill="#fbf2e3"/><path d="M213.42,381.87h86.85l-.33-68.96c0-21.23-19.35-38.49-43.13-38.49h-72.94v22.65h72.94c6.82,0,12.91,2.67,16.3,7.13,1.3,1.72,1.98,3.92,1.97,6.36l-.11,21.24v27.43s-61.89,0-61.89,0c-10,0-17.83-6.23-17.83-14.19s8-14.18,17.83-14.18h47.64v-21.98h-47.64c-23.2,0-42.8,16.56-42.8,36.17s19.35,36.83,43.13,36.83Z" fill="#fbf2e3"/><path d="M408.88,274.42h-43.73c-23.6,0-42.79,17.27-42.79,38.49v30.48c0,10.4,4.49,20.11,12.65,27.34,8.12,7.19,18.94,11.15,30.48,11.15h43.73c23.81,0,42.46-16.91,42.46-38.49v-30.48c0-21.58-18.8-38.49-42.79-38.49Zm15.93,62.29c0,12.95-11.12,23.09-25.32,23.09h-24.57c-14.17,0-25.69-10.36-25.69-23.09v-17.13c0-12.73,11.44-23.09,25.51-23.09h24.58c14.3,0,25.51,10.14,25.51,23.09v17.13Z" fill="#fbf2e3"/></g><g><path d="M235.61,237.33c-35.58,0-71.12-10.67-98.26-32.04-26.83-21.12-36.35-50.23-27.53-84.18,8.19-31.52,28.76-54.9,47.8-73.61,2.82-2.77,5.69-5.4,8.46-7.95,8.56-7.85,16.64-15.27,20.97-24.72,3.54-7.74,10.35-12.86,18.2-13.68,4.48-.47,8.96,.47,13,2.61,2.1,1.11,4.64,.88,6.61-.46C227.64,1.41,231.06,.03,235.2,0c.05,0,.11,0,.16,0,4.29,0,7.83,1.43,10.72,3.42,1.99,1.37,4.58,1.6,6.7,.44,4.12-2.25,8.68-3.25,13.21-2.79,7.6,.77,13.95,5.4,17.43,12.7,5.38,11.29,14.98,20.03,25.14,29.28,5.77,5.25,11.73,10.68,17.25,16.85,19.33,21.63,30.35,40.75,35.75,62.02,8.49,33.44-.72,62.03-26.63,82.69-27.33,21.8-63.34,32.71-99.31,32.71Z" fill="#fbf2e3"/><g><path d="M235.61,237.33c-35.58,0-71.12-10.67-98.26-32.04-26.83-21.12-36.35-50.23-27.53-84.18,8.19-31.52,28.76-54.9,47.8-73.61,2.82-2.77,5.69-5.4,8.46-7.95,8.56-7.85,16.64-15.27,20.97-24.72,3.54-7.74,10.35-12.86,18.2-13.68,4.48-.47,8.96,.47,13,2.61,2.1,1.11,4.64,.88,6.61-.46C227.64,1.41,231.06,.03,235.2,0c.05,0,.11,0,.16,0,4.29,0,7.83,1.43,10.72,3.42,1.99,1.37,4.58,1.6,6.7,.44,4.12-2.25,8.68-3.25,13.21-2.79,7.6,.77,13.95,5.4,17.43,12.7,5.38,11.29,14.98,20.03,25.14,29.28,5.77,5.25,11.73,10.68,17.25,16.85,19.33,21.63,30.35,40.75,35.75,62.02,8.49,33.44-.72,62.03-26.63,82.69-27.33,21.8-63.34,32.71-99.31,32.71ZM210.48,15.1c-1.61-.88-3.57-.26-4.59,1.35-6.86,10.8-15.38,19.27-23.13,26.98-2.9,2.88-5.63,5.61-8.26,8.41-18.12,19.29-35.82,41.05-42.6,69.37-6.27,26.15-.44,45.8,18.34,61.82,46.63,39.79,125.27,39.5,171.71-.65,17.7-15.3,23.42-35.06,17.48-60.42-4.45-18.98-14.04-36.68-31.11-57.38-4.8-5.82-10.3-11.25-16.13-17-9.01-8.89-18.93-18.67-26.88-31.05-1.04-1.61-3-2.21-4.62-1.32-3.33,1.84-7.06,2.85-10.91,2.85-.07,0-.13,0-.2,0-4.45-.04-8.72-1.41-12.4-3.87-1.12-.75-2.55-.75-3.68-.02-3.56,2.3-7.66,3.6-11.93,3.67-3.93,.06-7.72-.9-11.1-2.74Zm5.6-4.24s0,0,0,0h0Z" fill="#1e2022"/><g><path d="M219.03,35.27c-.2-.59-.71-.92-1.31-.83-.32,.05-.89,.25-1.02,1.09-.11,.71-.23,1.42-.36,2.13-.37,2.01-1.23,3.86-2.53,5.52-1.25,1.58-2.3,2.72-3.4,3.68-1.07,.93-2.27,1.56-3.7,1.93-1.11,.28-2.41,.63-3.69,1.04-.52,.17-1.06,.47-1.51,.87-.79,.67-1.19,1.63-1.1,2.61,.09,.95,.63,1.78,1.48,2.27,.68,.39,1.43,.55,1.94,.61,.33,.04,.66,.06,.99,.06,1.45,0,2.92-.37,4.4-1.11h.01c2.62-1.39,4.71-3.31,6.59-6.06,2.63-3.84,3.76-8.21,3.36-12.98-.03-.31-.08-.59-.16-.83Z" fill="#1e2022"/><path d="M269.71,50.69c-.46-.39-.99-.7-1.51-.87-1.27-.41-2.58-.76-3.69-1.04-1.42-.36-2.63-.99-3.69-1.93-1.1-.96-2.15-2.1-3.4-3.68-1.31-1.65-2.16-3.51-2.53-5.52-.13-.71-.25-1.42-.36-2.13-.13-.83-.69-1.04-1.02-1.09-.6-.09-1.11,.24-1.31,.83-.08,.25-.14,.53-.16,.83-.4,4.77,.73,9.14,3.35,12.98,1.88,2.75,3.97,4.67,6.59,6.05h.01c1.47,.74,2.95,1.12,4.4,1.12,.33,0,.66-.02,.99-.06,.51-.06,1.27-.22,1.94-.61,.85-.49,1.39-1.32,1.48-2.28,.09-.99-.31-1.94-1.1-2.61Z" fill="#1e2022"/><path d="M237.49,40.79l-.26-2.62c-.1-.97-.3-1.82-.45-2.36-.28-1-.63-2.05-1.48-1.99-.73,.06-1.08,.87-1.31,2.99-.83,7.71-1.23,14.02-1.3,20.45v.86c.02,.8,.04,1.77,.07,2.73,.09,2.3,.38,4.25,.86,5.79,.34,1.08,.9,2.51,1.94,2.51,.02,0,.04,0,.05,0,.91-.04,1.54-1.1,2.03-3.43,.17-.82,.3-1.64,.39-2.43,.52-4.8,.65-8.71,.39-12.3-.25-3.45-.59-6.88-.92-10.2Z" fill="#1e2022"/></g><g><path d="M237.3,155.99c-5.68,0-11.02-2.51-14.64-6.89-1.33-1.61-1.11-3.99,.5-5.31,1.61-1.33,3.99-1.11,5.31,.5,2.19,2.64,5.4,4.15,8.83,4.15s6.57-1.48,8.75-4.07c1.35-1.59,3.73-1.79,5.32-.45,1.59,1.34,1.79,3.73,.45,5.32-3.62,4.29-8.91,6.75-14.52,6.75Z" fill="#1e2022"/><path d="M197.58,112.15c7.23,0,14.03,3.2,18.65,8.78,1.69,2.05,1.41,5.08-.64,6.77-2.05,1.69-5.08,1.41-6.77-.64-2.78-3.36-6.88-5.29-11.24-5.29s-8.37,1.89-11.15,5.19c-1.71,2.03-4.75,2.29-6.78,.57-2.03-1.71-2.29-4.75-.57-6.78,4.61-5.47,11.36-8.6,18.5-8.6Z" fill="#1e2022"/><path d="M273.54,112.15c7.23,0,14.03,3.2,18.65,8.78,1.69,2.05,1.41,5.08-.64,6.77-2.05,1.69-5.08,1.41-6.77-.64-2.78-3.36-6.88-5.29-11.24-5.29s-8.37,1.89-11.15,5.19c-1.71,2.03-4.75,2.29-6.78,.57-2.03-1.71-2.29-4.75-.57-6.78,4.61-5.47,11.36-8.6,18.5-8.6Z" fill="#1e2022"/></g></g></g></g></svg>