<?xml version="1.0" encoding="utf-8"?>
<!-- Generator: Adobe Illustrator 27.0.1, SVG Export Plug-In . SVG Version: 6.00 Build 0)  -->
<svg version="1.1" id="Layer_1" xmlns="http://www.w3.org/2000/svg" xmlns:xlink="http://www.w3.org/1999/xlink" x="0px" y="0px"
	 viewBox="0 0 1248.9 1047" style="enable-background:new 0 0 1248.9 1047;" xml:space="preserve">
<style type="text/css">
	.st0{fill-rule:evenodd;clip-rule:evenodd;}
</style>
<g id="Layer_2_00000134235514517327620830000013855845891842684563_">
	<g id="Layer_1-2">
		<path class="st0" d="M264.9,674.9l18.6,130.2l-92.8,18.6l-74.3-18.6L5,619l37.1-334.9L172,116.6L339.1,98L506.2,5L729,116.6
			l-55.7,55.8c160.9,24.8,266.1,43.4,315.6,55.8c74.3,18.6,204.2,111.6,222.8,130.3c18.6,18.6,9.7,104.1,0,167.5
			c-6.5,42.2-18.9,73.2-37.1,93l74.3,428h-167.1l37.1-37.2L970.2,693.5l-408.4,55.8L413.4,1047H246.3l55.7-93l111.4-390.7
			l-74.3-74.4l-167,37.1l-18.6,148.9l55.7,55.8L264.9,674.9L264.9,674.9z M526,894.6l55.5-114.3l73.9-19l55.5,285.7H526l37-19
			L526,894.6z M882.3,765.2l55.5-37.6l92.4,159.7l-18.5,159.7H845.3l37-56.4V765.2L882.3,765.2z"/>
	</g>
</g>
</svg>
