<?xml version="1.0" encoding="utf-8"?>
<!-- Generator: Adobe Illustrator 27.0.1, SVG Export Plug-In . SVG Version: 6.00 Build 0)  -->
<svg version="1.1" id="Layer_1" xmlns="http://www.w3.org/2000/svg" xmlns:xlink="http://www.w3.org/1999/xlink" x="0px" y="0px"
	 viewBox="0 0 1366.3 1080" style="enable-background:new 0 0 1366.3 1080;" xml:space="preserve">
<style type="text/css">
	.st0{fill-rule:evenodd;clip-rule:evenodd;fill:#12C264;}
</style>
<g>
	<g>
		<g>
			<g>
				<g transform="translate(-1096 -490) translate(820 442) translate(38 48) translate(238.3 .6)">
					<g transform="translate(0 5.756)">
						<path class="st0" d="M25.8,608l339.4-339.4l203,203.1c34.4,34.4,34.4,90.1,0,124.5L228.9,935.7L25.8,732.6
							C-8.6,698.2-8.6,642.4,25.8,608"/>
					</g>
					<g transform="translate(8.467 .054)">
						<path class="st0" d="M402.1,229l203-203.1c34.4-34.4,90.2-34.4,124.6,0l203,203.1l-203,203c-34.4,34.4-90.2,34.4-124.6,0
							L402.1,229z"/>
					</g>
					<g transform="translate(8.467 13.014)">
						<path class="st0" d="M402.1,837.5l203-203c34.4-34.4,90.2-34.4,124.6,0l203,203l-203,203.1c-34.4,34.4-90.2,34.4-124.6,0
							L402.1,837.5z"/>
					</g>
					<path class="st0" d="M783.6,477.5L1138.1,123l203.1,203c34.4,34.4,34.4,90.1,0,124.5L986.7,805.1L783.6,602
						C749.3,567.6,749.3,511.8,783.6,477.5"/>
				</g>
			</g>
		</g>
	</g>
</g>
</svg>
