<?xml version="1.0" encoding="utf-8"?>
<!-- Generator: Adobe Illustrator 27.0.1, SVG Export Plug-In . SVG Version: 6.00 Build 0)  -->
<svg version="1.1" id="Layer_1" xmlns="http://www.w3.org/2000/svg" xmlns:xlink="http://www.w3.org/1999/xlink" x="0px" y="0px"
	 viewBox="0 0 1082 1080" style="enable-background:new 0 0 1082 1080;" xml:space="preserve">
<style type="text/css">
	.st0{fill-rule:evenodd;clip-rule:evenodd;fill:#111111;}
	.st1{fill:#FFFFFF;}
</style>
<g id="Layer_2_00000092442965205446958100000005935763080827248774_">
	<g id="Layer_1-2">
		<path id="SVGID" class="st0" d="M540,0c298.2,0,540,241.8,540,540s-241.8,540-540,540S0,838.2,0,540S241.8,0,540,0z"/>
		<path id="SVGID-2" class="st1" d="M548.1,765.7c-172.7,0-312.7-49.9-312.7-116.7c0-34.9,38.1-66.3,99.1-88.5
			c47.6,30.6,127.5,46.2,218.2,46.2c88.5,0,166.6-19.1,214.7-48.4c57.6,21.9,93.3,52.5,93.3,86.2
			C860.8,711.5,720.8,765.7,548.1,765.7z"/>
		<path id="SVGID-3" class="st1" d="M549.9,591.7c-130.9,0-237.1-41-237.1-91.7c0-28.1,32.7-53.2,84-70
			c36.6,19.1,91.5,31.3,153,31.3s116.4-12.2,153-31.3c51.4,16.8,84,41.9,84,70C787.1,550.7,680.9,591.7,549.9,591.7z"/>
		<path id="SVGID-4" class="st1" d="M549.1,446.1c-101.2,0-183.3-33.9-183.3-75.6s82.1-75.6,183.3-75.6s183.3,33.9,183.3,75.6
			S650.3,446.1,549.1,446.1L549.1,446.1z"/>
	</g>
</g>
</svg>
