<?xml version="1.0" encoding="UTF-8"?><svg id="b" xmlns="http://www.w3.org/2000/svg" width="900.41" height="285.93" viewBox="0 0 900.41 285.93"><g id="c"><g><path d="M825.68,254.07c41.9,0,74.73-30.72,74.73-69.94v-36.72c0-39.22-33-69.94-75.12-69.94h-52.69c-25.14,0-48.52,11.68-62.53,31.24l-2.55,3.56-2.56-3.55c-14.09-19.56-37.59-31.24-62.87-31.24h-111.44v40.9l-5.75-8.5c-13.89-20.54-37.67-32.8-63.61-32.8h-51.4V31.86h-77.21V183.73c0,39.44,33.52,70.34,76.32,70.34h52.69c24.79,0,47.04-10.67,61.05-29.28l2.48-3.3,2.52,3.27c14.16,18.36,37.37,29.31,62.07,29.31h128.32l-.07-15-.03-6.66,5.16,4.21c13.81,11.25,31.5,17.45,49.82,17.45h52.68Z" fill="#1e2022"/><path d="M409,224.04h52.68c29.17,0,51.16-20.11,51.16-46.77v-36.72c0-25.57-23.13-46.37-51.56-46.37h-57.65v26.89h57.65c11.84,0,21.48,8.74,21.48,19.48v36.72c0,11.06-9.03,19.08-21.48,19.08h-52.68c-12.49,0-22.28-8.38-22.28-19.08V48.96h-30.08V177.27c0,26.23,23.17,46.77,52.75,46.77Z" fill="#fbf2e3"/><path d="M589.8,224.04h104.64l-.4-83.08c0-25.57-23.31-46.38-51.96-46.38h-87.88v27.29h87.88c8.22,0,15.56,3.21,19.64,8.59,1.57,2.07,2.39,4.72,2.38,7.66l-.14,25.59v33.05s-74.56,0-74.56,0c-12.05,0-21.48-7.51-21.48-17.09s9.64-17.09,21.48-17.09h57.4v-26.49h-57.4c-27.95,0-51.56,19.95-51.56,43.58s23.31,44.38,51.96,44.38Z" fill="#fbf2e3"/><path d="M825.28,94.58h-52.68c-28.43,0-51.56,20.8-51.56,46.37v36.72c0,12.53,5.41,24.23,15.24,32.93,9.78,8.66,22.82,13.44,36.72,13.44h52.68c28.69,0,51.16-20.37,51.16-46.37v-36.72c0-26-22.65-46.37-51.56-46.37Zm19.19,75.05c0,15.6-13.4,27.82-30.51,27.82h-29.61c-17.07,0-30.96-12.48-30.96-27.82v-20.63c0-15.34,13.79-27.82,30.73-27.82h29.61c17.23,0,30.73,12.22,30.73,27.82v20.63Z" fill="#fbf2e3"/></g><g><path d="M155.21,276.35c-39.99,0-79.94-11.99-110.45-36.01C14.6,216.59,3.9,183.87,13.81,145.72c9.2-35.43,32.32-61.71,53.72-82.74,3.17-3.11,6.39-6.07,9.51-8.94,9.62-8.83,18.7-17.17,23.57-27.79,3.98-8.7,11.63-14.45,20.46-15.38,5.04-.53,10.07,.53,14.61,2.93,2.36,1.25,5.22,.99,7.43-.51,3.14-2.13,6.99-3.68,11.64-3.71,.06,0,.12,0,.18,0,4.83,0,8.8,1.61,12.05,3.85,2.23,1.54,5.14,1.79,7.53,.5,4.64-2.53,9.75-3.65,14.85-3.14,8.54,.87,15.68,6.07,19.59,14.28,6.04,12.69,16.83,22.51,28.26,32.91,6.48,5.9,13.19,12.01,19.39,18.94,21.72,24.31,34.12,45.81,40.19,69.72,9.54,37.58-.81,69.72-29.93,92.95-30.72,24.5-71.19,36.77-111.63,36.77Z" fill="#fbf2e3"/><g><path d="M155.4,285.93c-42.86,0-85.69-12.85-118.38-38.6C4.7,221.88-6.77,186.81,3.85,145.92,13.71,107.94,38.49,79.78,61.43,57.24c3.4-3.34,6.85-6.51,10.2-9.58,10.31-9.46,20.04-18.4,25.26-29.79,4.27-9.33,12.47-15.49,21.93-16.48,5.4-.56,10.79,.56,15.66,3.14,2.53,1.34,5.6,1.06,7.97-.55C145.8,1.7,149.93,.04,154.92,0c.06,0,.13,0,.19,0,5.17,0,9.44,1.73,12.91,4.12,2.39,1.65,5.51,1.92,8.07,.53,4.97-2.71,10.45-3.91,15.91-3.36,9.16,.93,16.81,6.51,21,15.3,6.48,13.6,18.04,24.13,30.29,35.27,6.95,6.33,14.14,12.87,20.78,20.3,23.28,26.05,36.57,49.1,43.08,74.72,10.23,40.28-.86,74.73-32.08,99.63-32.93,26.26-76.31,39.41-119.65,39.41ZM125.13,18.19c-1.94-1.05-4.3-.31-5.53,1.63-8.27,13.01-18.52,23.22-27.86,32.51-3.49,3.47-6.79,6.75-9.95,10.13-21.83,23.25-43.15,49.46-51.33,83.57-7.55,31.51-.53,55.17,22.09,74.48,56.18,47.94,150.92,47.58,206.88-.79,21.33-18.44,28.22-42.25,21.06-72.79-5.36-22.87-16.92-44.19-37.48-69.13-5.79-7.02-12.41-13.56-19.43-20.48-10.86-10.71-22.8-22.5-32.38-37.41-1.25-1.94-3.62-2.66-5.56-1.59-4.01,2.22-8.5,3.43-13.14,3.43-.08,0-.16,0-.24,0-5.36-.05-10.51-1.7-14.94-4.66-1.35-.9-3.07-.9-4.43-.02-4.29,2.77-9.23,4.34-14.37,4.43-4.73,.07-9.3-1.09-13.38-3.3Zm6.75-5.11s0,0,0,0h0Z" fill="#1e2022"/><g><path d="M135.43,42.49c-.24-.72-.85-1.11-1.57-1-.39,.06-1.07,.31-1.22,1.31-.13,.86-.27,1.72-.43,2.57-.45,2.42-1.48,4.65-3.05,6.65-1.51,1.91-2.77,3.28-4.09,4.44-1.28,1.12-2.74,1.88-4.45,2.32-1.33,.34-2.91,.76-4.44,1.25-.63,.2-1.27,.57-1.82,1.04-.95,.81-1.43,1.96-1.32,3.15,.11,1.15,.75,2.15,1.78,2.74,.82,.47,1.72,.66,2.34,.73,.4,.05,.8,.07,1.2,.07,1.74,0,3.52-.45,5.3-1.34h.02c3.15-1.67,5.68-3.99,7.94-7.3,3.17-4.63,4.53-9.89,4.04-15.64-.03-.38-.1-.7-.2-1Z" fill="#1e2022"/><path d="M196.5,61.07c-.55-.47-1.2-.84-1.82-1.04-1.53-.49-3.11-.91-4.44-1.25-1.71-.44-3.17-1.2-4.45-2.32-1.32-1.16-2.59-2.53-4.09-4.44-1.57-1.99-2.6-4.23-3.05-6.65-.16-.85-.3-1.71-.43-2.57-.15-1-.83-1.25-1.22-1.31-.72-.11-1.34,.28-1.57,1-.1,.3-.16,.64-.19,1-.48,5.75,.88,11.01,4.04,15.64,2.26,3.31,4.79,5.63,7.94,7.29h.02c1.78,.9,3.55,1.34,5.3,1.34,.4,0,.8-.02,1.2-.07,.62-.07,1.52-.26,2.34-.73,1.03-.59,1.67-1.59,1.78-2.74,.11-1.19-.37-2.34-1.32-3.15Z" fill="#1e2022"/><path d="M157.67,49.14l-.31-3.15c-.12-1.17-.36-2.19-.54-2.85-.33-1.2-.75-2.48-1.79-2.4-.88,.07-1.3,1.05-1.58,3.6-1,9.29-1.48,16.89-1.57,24.63l.02,1.04c.01,.96,.03,2.13,.07,3.28,.11,2.77,.46,5.12,1.03,6.98,.4,1.3,1.08,3.02,2.33,3.02,.02,0,.04,0,.06,0,1.1-.05,1.85-1.32,2.44-4.13,.21-.99,.37-1.97,.47-2.92,.63-5.79,.78-10.49,.47-14.82-.3-4.16-.71-8.29-1.11-12.29Z" fill="#1e2022"/></g><g><path d="M157.44,187.94c-6.84,0-13.27-3.03-17.64-8.3-1.6-1.93-1.33-4.8,.6-6.4,1.93-1.6,4.8-1.33,6.4,.6,2.63,3.18,6.51,5.01,10.63,5.01s7.92-1.79,10.55-4.9c1.62-1.92,4.49-2.16,6.41-.54,1.92,1.62,2.16,4.49,.54,6.41-4.36,5.17-10.74,8.13-17.5,8.13Z" fill="#1e2022"/><path d="M109.59,135.11c8.72,0,16.91,3.85,22.47,10.57,2.04,2.46,1.7,6.12-.77,8.16-2.46,2.04-6.12,1.7-8.16-.77-3.35-4.05-8.29-6.38-13.54-6.38s-10.09,2.28-13.44,6.25c-2.06,2.44-5.72,2.75-8.16,.69-2.44-2.06-2.75-5.72-.69-8.16,5.56-6.58,13.68-10.36,22.29-10.36Z" fill="#1e2022"/><path d="M201.1,135.11c8.72,0,16.91,3.85,22.47,10.57,2.04,2.46,1.7,6.12-.77,8.16-2.46,2.04-6.12,1.7-8.16-.77-3.35-4.05-8.29-6.38-13.54-6.38s-10.09,2.28-13.44,6.25c-2.06,2.44-5.72,2.75-8.16,.69-2.44-2.06-2.75-5.72-.69-8.16,5.56-6.58,13.68-10.36,22.29-10.36Z" fill="#1e2022"/></g></g></g></g></svg>