<?xml version="1.0" encoding="utf-8"?>
<!-- Generator: Adobe Illustrator 27.0.1, SVG Export Plug-In . SVG Version: 6.00 Build 0)  -->
<svg version="1.1" id="Layer_1" xmlns="http://www.w3.org/2000/svg" xmlns:xlink="http://www.w3.org/1999/xlink" x="0px" y="0px"
	 viewBox="0 0 1058.2 1057.2" style="enable-background:new 0 0 1058.2 1057.2;" xml:space="preserve">
<style type="text/css">
	.st0{fill-rule:evenodd;clip-rule:evenodd;fill:url(#SVGID_1_);}
	.st1{fill-rule:evenodd;clip-rule:evenodd;fill:#221F20;}
</style>
<linearGradient id="SVGID_1_" gradientUnits="userSpaceOnUse" x1="528.6" y1="0" x2="528.6" y2="1058.9509">
	<stop  offset="0" style="stop-color:#78C4BB"/>
	<stop  offset="0.22" style="stop-color:#4F9994"/>
	<stop  offset="0.86" style="stop-color:#363681"/>
</linearGradient>
<path class="st0" d="M528.6,1057.2c291.9,0,528.6-236.6,528.6-528.6C1057.2,236.7,820.6,0,528.6,0C236.7,0,0,236.6,0,528.6
	S236.6,1057.2,528.6,1057.2z"/>
<path class="st1" d="M520.3,1009.7L280.8,770.5l101.4-102.3L520.3,1009.7z"/>
<path class="st1" d="M364.9,205.3c-9,9-124.7,91.7-100.1,233.1c11.3,65,83,135,142.1,206.1c84.1,101.2,100,128.1,114.6,165
	c35.9,90.3,4.3,182.9-0.5,201.6c0,0,75.7-59,90.1-138.2c12-66.1,9.2-83.2,4.2-113.2c-12-72.1-63.8-132.6-124.4-199.3
	c-60.1-66.1-65.5-70.2-109.7-128.7c-25.9-34.2-40.8-67.6-41.6-110.1C338.5,259,372.9,197.4,364.9,205.3z"/>
<path class="st1" d="M423.2,144.7c0,0,3.6,4.8,10.3,7.1c8.8,3.1,22.4,4,33.3-6.7c9.9-9.6,9.3-23.6,6.1-32.3
	c-2.6-7-7.1-10.7-7.1-10.7l6.1-6.3c0,0,2.4,3.6,7.8,6.1c9.1,4.1,24.6,6.2,37.3-8.4c9.2-10.6,7.1-23.4,3.4-31.4
	c-2.4-5.2-5.6-9-5.7-9.2c-0.1-0.6,6.9-7.3,6.9-7.3l241.9,243.6l-33.9,32.7c0,0-29.9-37.5-62.6-39.1c-18.9-1-29.8-1-49.4,3.5
	c-17.6,4-26.9,8.8-48.2-2.5c-26.7-14.2-26.1-43-25.4-58.2c0.6-12.2-5.2-19-13.4-19.3c-7.3-0.2-14.5,2.5-16.1,14.1
	c-3.2,23.8-0.2,40.1,17.6,68.7c17.2,27.4,84.2,93.5,106.4,119.2c23.9,27.6,43.6,42.8,81.3,95.6c25.7,36,60.4,87.2,60.4,150.1
	c0,47.5-14,76.4-32,112.5S674,858.9,675,856.6c1-2.2,21-64.1,17.3-139.8c-4.5-94.1-87.2-167.7-133-222.5
	C522.2,450,489.4,416.4,452,364.6C387.8,275.7,423.2,144.7,423.2,144.7L423.2,144.7z"/>
</svg>
