<?xml version="1.0" encoding="utf-8"?>
<!-- Generator: Adobe Illustrator 25.2.0, SVG Export Plug-In . SVG Version: 6.00 Build 0)  -->
<svg version="1.1" id="Layer_1" xmlns="http://www.w3.org/2000/svg" xmlns:xlink="http://www.w3.org/1999/xlink" x="0px" y="0px"
	 viewBox="0 0 14 15" style="enable-background:new 0 0 14 15;" xml:space="preserve">
<style type="text/css">
	.st0{fill-rule:evenodd;clip-rule:evenodd;fill:#59251B;}
	.st1{fill-rule:evenodd;clip-rule:evenodd;fill:#FFFCF5;}
	.st2{fill-rule:evenodd;clip-rule:evenodd;fill:#F1E3D6;}
	.st3{fill-rule:evenodd;clip-rule:evenodd;fill:#FFFFFF;}
</style>
<g id="Facing_Left">
	<path class="st0" d="M9.9,3c2.2,1,3.9,2.8,4,5.4c0,1-0.2,2-0.8,2.9c-1.3,1.9-3.7,2.7-5.9,2.8c-1.2,0-2.4-0.1-3.5-0.5
		c-1-0.4-2-1-2.7-1.9c-0.7-0.9-1-2.1-1-3.3C0.2,5.9,1.6,4.1,3.8,3c0-0.8,0.7-1.5,1.5-1.5c0.1,0,0.3,0,0.4,0C5.9,1.2,6.3,1,6.8,1
		C7.3,1,7.7,1.2,8,1.5c0.1,0,0.3-0.1,0.4-0.1C9.2,1.5,9.9,2.2,9.9,3z"/>
	<path class="st1" d="M9.5,3c0-0.6-0.5-1.1-1.1-1.1C8.2,1.9,8,2,7.8,2.1v0l0,0C7.6,2.2,7.4,2.5,7.3,2.8c0-0.4,0.1-0.7,0.4-1
		C7.5,1.6,7.1,1.4,6.8,1.4c-0.5,0-0.8,0.3-1,0.7C5.7,2.3,5.7,2.7,5.8,3C5.6,2.7,5.5,2.4,5.5,2c-0.1,0-0.2,0-0.3,0
		C4.6,1.9,4.2,2.4,4.2,3c0,0.1,0,0.1,0,0.2l0,0C4.3,3.5,4.6,3.8,4.8,4C4.5,3.9,4.2,3.7,4,3.4c-2,1-3.3,2.7-3.5,5.1
		c-0.4,7.1,13.2,6.8,13,0c-0.1-2.5-1.8-4.2-4-5.2C9.3,3.1,8.8,3,8.6,3.1C8.9,3,9.1,2.9,9.5,3z"/>
	<path class="st2" d="M4.8,4C4.5,3.9,4.2,3.7,4,3.4c-0.1,0-0.1,0.1-0.2,0.1C4,3.8,4.4,3.9,4.8,4z"/>
	<path class="st2" d="M5.8,2.9C5.8,3,5.8,3,5.8,2.9L5.8,2.9L5.8,2.9z M5.8,3C5.5,2.7,5.4,2.3,5.4,1.9c0.1,0,0.1,0,0.2,0
		C5.5,2.4,5.6,2.7,5.8,3z"/>
	<path class="st2" d="M7.3,2.8C7.3,2.8,7.3,2.8,7.3,2.8L7.3,2.8L7.3,2.8z M7.3,2.8C7.2,2.4,7.3,2,7.5,1.7c0.1,0,0.1,0.1,0.2,0.2
		C7.4,2.1,7.3,2.4,7.3,2.8z"/>
	<path class="st2" d="M9.5,3c0-0.1,0-0.2,0-0.2c-0.3,0-0.6,0.2-0.9,0.4C8.9,3,9.1,2.9,9.5,3z"/>
	<path class="st2" d="M1.7,11.7c3.2,3.4,12,2.1,11.8-3.3c-0.1-1.7-0.9-3.1-2.2-4.1c2.9,5.2-0.3,9.4-6.1,8.8
		C4.1,13,2.8,12.4,1.7,11.7z"/>
	<path class="st0" d="M4.8,6c0.7-0.3,0.8-1.3,0.6-1.8C5.3,5.1,5.1,5.6,4.8,6z"/>
	<path class="st0" d="M5.9,4.6c0.1,0.8,0.3,1,0.7,1C6.1,5,6.1,4.9,5.9,4.6z"/>
	<path class="st0" d="M5.2,4.5c0,0.5-0.5,0.9-0.8,0.9C4.7,5.2,5,4.8,5.2,4.5z"/>
	<path class="st0" d="M4,11c0.2,0.2,0.6,0.2,0.8,0c0.4,0.4,1.1,0.4,1.7,0.3c-0.6,0.2-1.2,0.3-1.7-0.1C4.6,11.3,4.2,11.3,4,11z"/>
	<path class="st0" d="M3.6,8.4C4,8.5,4.2,9,4,9.4C3.9,9.8,3.5,10,3,9.9c-0.4-0.2-0.6-0.6-0.5-1C2.7,8.4,3.2,8.2,3.6,8.4z"/>
	<path class="st3" d="M3.7,8.5c0.2,0.1,0.3,0.3,0.2,0.4C3.8,9.1,3.6,9.2,3.5,9.1C3.3,9,3.2,8.9,3.3,8.7C3.3,8.5,3.5,8.4,3.7,8.5z"/>
	<path class="st0" d="M4.9,10.2c0.1,0,0.1,0,0.1,0c0,0,0.1,0,0.1,0.1c0,0,0,0-0.1,0.1c0,0-0.1,0-0.1,0c-0.1,0-0.1,0-0.1-0.1
		c0,0-0.1,0-0.1-0.1c0,0,0,0,0.1,0C4.8,10.2,4.8,10.2,4.9,10.2z"/>
	<path class="st0" d="M8,8.3c-0.5,0.1-0.8,0.5-0.7,1c0.1,0.5,0.5,0.8,1,0.8C8.8,10,9.1,9.6,9,9.1C9,8.6,8.5,8.3,8,8.3z"/>
	<path class="st3" d="M7.8,8.5c-0.2,0-0.3,0.2-0.3,0.4c0,0.2,0.2,0.3,0.4,0.3c0.2,0,0.3-0.2,0.3-0.4C8.2,8.6,8,8.5,7.8,8.5z"/>
</g>
</svg>
