<svg xmlns="http://www.w3.org/2000/svg" xmlns:xlink="http://www.w3.org/1999/xlink" viewBox="0 0 103.82 90.44"><defs><style>.cls-1{fill:#382f26;opacity:0.5;}.cls-2{fill:#d4a746;}.cls-3{fill:url(#linear-gradient);}.cls-4{fill:#d9b25e;}.cls-5{fill:#cf9d31;}.cls-6{fill:#e7c588;}.cls-7{fill:#e3b667;}.cls-8{fill:url(#linear-gradient-2);}.cls-9{fill:url(#linear-gradient-3);}.cls-10{fill:#ecd2a3;}.cls-11{fill:url(#linear-gradient-4);}.cls-12{fill:#b88326;}.cls-13{fill:#4a2d19;}.cls-14{fill:#895b00;}.cls-15{fill:#976c20;}.cls-16{fill:#3d2515;}.cls-17{fill:#704b00;}.cls-18,.cls-23,.cls-26{fill:#59251b;}.cls-18,.cls-19,.cls-20,.cls-21,.cls-22,.cls-24,.cls-25,.cls-26,.cls-27,.cls-28{fill-rule:evenodd;}.cls-19{fill:#fffcf5;}.cls-20{fill:#f1e3d6;}.cls-21{fill:#fff;}.cls-22{fill:#ff8884;}.cls-24{fill:#fe0;}.cls-25{fill:#f5b219;}.cls-26{opacity:0.15;}.cls-27{fill:#d14641;}.cls-28{fill:#e05c57;}</style><linearGradient id="linear-gradient" x1="-1429.59" y1="61.34" x2="-1405.23" y2="61.34" gradientTransform="matrix(-1, 0, 0, 1, -1405.17, 0)" gradientUnits="userSpaceOnUse"><stop offset="0" stop-color="#cf9c2f"/><stop offset="1" stop-color="#b37a16"/></linearGradient><linearGradient id="linear-gradient-2" x1="-1494.49" y1="36.69" x2="-1407.98" y2="36.69" gradientTransform="matrix(-1, 0, 0, 1, -1405.17, 0)" gradientUnits="userSpaceOnUse"><stop offset="0" stop-color="#936725"/><stop offset="0.05" stop-color="#a17125"/><stop offset="0.12" stop-color="#b27e26"/><stop offset="0.18" stop-color="#b88326"/><stop offset="0.45" stop-color="#b88326"/><stop offset="1" stop-color="#855118"/></linearGradient><linearGradient id="linear-gradient-3" x1="-1425.1" y1="38.9" x2="-1408.53" y2="38.9" xlink:href="#linear-gradient"/><linearGradient id="linear-gradient-4" x1="-1443.16" y1="17.8" x2="-1411.11" y2="17.8" xlink:href="#linear-gradient"/></defs><g id="Layer_2" data-name="Layer 2"><g id="Layer_2-2" data-name="Layer 2"><ellipse class="cls-1" cx="52.82" cy="62.28" rx="51" ry="28.16"/><path class="cls-2" d="M.06,38.49h92L91.44,63.6C90,76.77,70.51,87.2,46.05,87.2S2.12,76.77.65,63.6L.06,38.49Z"/><path class="cls-3" d="M.65,63.6.06,38.49H6c9,6.29,18.8,14.57,18.41,20.68,0,0-.08,9.5-.08,25C10.88,80.17,1.65,72.51.65,63.6Z"/><path class="cls-4" d="M75.09,42.16H88V71.83c-2.85,3.77-7.29,7.06-12.89,9.63V42.16Z"/><path class="cls-5" d="M7.33,62.53c7.25,5.72,19.76,12.54,38.27,12.54,19,0,30.9-5.59,37.56-10.27a38.72,38.72,0,0,0,8.44-7.93v.67a40.49,40.49,0,0,1-8.18,7.56C71.25,73.66,56.13,75.46,45.6,75.46,27,75.46,14.37,68.59,7.08,62.83A53.93,53.93,0,0,1,.49,56.67v-.6A52.71,52.71,0,0,0,7.33,62.53Z"/><path class="cls-5" d="M7.76,71.15c7,5.76,19.22,12.61,37.57,12.61,18.51,0,30.39-5.83,37.1-10.72a40.76,40.76,0,0,0,8.9-8.7c0,.29-.1.58-.17.87a42,42,0,0,1-8.48,8.13C75.92,78.27,64,84.15,45.33,84.15c-18.46,0-30.75-6.9-37.81-12.7A51.94,51.94,0,0,1,.86,64.91c0-.26-.1-.51-.13-.77A50.92,50.92,0,0,0,7.76,71.15Z"/><path class="cls-5" d="M91.84,47.57A30.62,30.62,0,0,1,85,55.3C73.75,64.56,57.36,66.5,45.6,66.5c-9.88,0-18.55-1.36-25.77-4A40.36,40.36,0,0,1,5.37,53.53,31.11,31.11,0,0,1,.26,46.94l0-.84a30.37,30.37,0,0,0,5.43,7.17A40,40,0,0,0,20,62.1c7.17,2.66,15.78,4,25.61,4,11.68,0,28-1.92,39.16-11.09a30,30,0,0,0,7.1-8.25Z"/><ellipse class="cls-6" cx="46.06" cy="37.05" rx="46.06" ry="26.24"/><path class="cls-7" d="M74.9,57.51a70.29,70.29,0,0,1-28.84,5.78C20.62,63.29,0,51.54,0,37.05,0,26.21,11.54,16.9,28,12.9Z"/><path class="cls-8" d="M2.81,36.69c0,13.14,19.36,23.79,43.25,23.79S89.31,49.83,89.31,36.69,70,12.91,46.06,12.91,2.81,23.56,2.81,36.69Z"/><path class="cls-2" d="M3.36,25.57H88.8L88.71,35.9c-1.36,12-19.93,21.45-42.65,21.45S4.77,47.87,3.41,35.9Z"/><path class="cls-4" d="M85.61,43.16a30.26,30.26,0,0,1-11,8.35V29.58h11Z"/><path class="cls-9" d="M3.41,35.9,3.36,25.57H4.73l15.2,14.26a90.47,90.47,0,0,0-.82,12.4C10.12,48.32,4.16,42.49,3.41,35.9Z"/><ellipse class="cls-6" cx="46.06" cy="25.57" rx="42.74" ry="22.86"/><path class="cls-10" d="M36.14,3.33a77.93,77.93,0,0,1,9.92-.62c23.6,0,42.74,10.23,42.74,22.86,0,6.83-5.6,13-14.48,17.15Z"/><path class="cls-11" d="M37.46,5A54,54,0,0,0,38,15.81c-14.84,1.57-26.7,7.37-30.65,14.85A11.71,11.71,0,0,1,5.93,25.2C5.93,15.28,19.43,7,37.46,5Z"/><path class="cls-12" d="M5.93,25.2c0,11.44,18,20.72,40.13,20.72S86.19,36.64,86.19,25.2,68.22,4.47,46.06,4.47,5.93,13.75,5.93,25.2Z"/><path class="cls-13" d="M30.38,17,65.65,43.29A63.59,63.59,0,0,1,59,44.81l-35-26A59.32,59.32,0,0,1,30.38,17Z"/><path class="cls-13" d="M19.38,20.64l33.55,25q-3.34.3-6.87.3h-1.4L14.4,23.39a36.15,36.15,0,0,1,5-2.75Z"/><path class="cls-13" d="M10.91,26.12,36.75,45.36a64,64,0,0,1-12.29-2.69L7.63,30.14a18.05,18.05,0,0,1,3.28-4Z"/><path class="cls-13" d="M44.05,15.42,75.84,39.09a41.72,41.72,0,0,1-5.28,2.52L36.2,16a73.22,73.22,0,0,1,7.85-.61Z"/><path class="cls-13" d="M62.2,17.14,83.34,32.88a20.94,20.94,0,0,1-3.72,3.68l-28.18-21A70,70,0,0,1,62.2,17.14Z"/><path class="cls-14" d="M30.38,17,65.65,43.29l-1.27.35L29.05,17.35,30.38,17Z"/><path class="cls-14" d="M10.91,26.12,36.75,45.36c-.73-.09-1.44-.19-2.15-.3L10.15,26.87c.25-.25.49-.5.76-.75Z"/><path class="cls-14" d="M19.38,20.64l33.55,25-1.57.12-33-24.59,1.07-.51Z"/><path class="cls-14" d="M59.77,16.64c.82.15,1.63.32,2.43.5L83.34,32.88c-.21.27-.43.53-.66.8l-22.91-17Z"/><path class="cls-14" d="M74.84,39.63,42.38,15.48c.56,0,1.11-.05,1.67-.06L75.84,39.09l-1,.54Z"/><path class="cls-2" d="M46.06,15.39c-18.5,0-34.08,6.47-38.72,15.27A11.71,11.71,0,0,1,5.93,25.2c0-11.45,18-20.73,40.13-20.73S86.19,13.75,86.19,25.2a11.59,11.59,0,0,1-1.41,5.46c-4.64-8.8-20.22-15.27-38.72-15.27Z"/><path class="cls-15" d="M46.06,15.39c15,0,28,4.24,34.93,10.52a10.3,10.3,0,0,1-2.53,3.33L62.2,17.14h0l-.18,0h0a69.87,69.87,0,0,0-10.53-1.51h0L73.53,32A26,26,0,0,1,68,33.26L44.78,16c.07-.19.16-.37.24-.56Z"/><path class="cls-16" d="M62.18,17.13h0Zm-.2,0h0ZM51.44,15.58,73.53,32a15.41,15.41,0,0,0,4.09-2.1L59.77,16.64h0c.74.14,1.48.29,2.2.45a69.87,69.87,0,0,0-10.53-1.51Z"/><path class="cls-17" d="M59.77,16.64c.74.14,1.48.29,2.2.45h0l.18,0h0l16.26,12.1c-.27.24-.54.46-.84.68L59.77,16.64Z"/><path class="cls-15" d="M8.29,30.63c1.36,3.66,4.6,6.21,10,7.43l-10-7.43ZM41,15.56c-15.49,1-28.21,6.59-33,14H8a18.58,18.58,0,0,1,2.92-3.45h0L28,38.86a37.14,37.14,0,0,0,6.26-.68L14.4,23.39a36.15,36.15,0,0,1,5-2.75h0L40.1,36.07a12,12,0,0,0,3.38-2.83L24.06,18.78a58.19,58.19,0,0,1,6.26-1.73h.06L45.63,28.39c0-.26.08-.53.11-.79,2.35,3.33,6.86,5.37,13.85,5.84L36.2,16c1.55-.21,3.13-.36,4.75-.47Z"/><path class="cls-16" d="M30.32,17.05l-1.27.3L45.38,29.5a10.27,10.27,0,0,1-1.9,3.74L24.06,18.78a58.19,58.19,0,0,1,6.26-1.73Z"/><path class="cls-16" d="M19.38,20.64l-1.07.51L39.08,36.6a21,21,0,0,1-4.81,1.58L14.4,23.39a36.15,36.15,0,0,1,5-2.75Z"/><path class="cls-16" d="M10.88,26.15A18.58,18.58,0,0,0,8,29.6c.1.35.21.69.33,1l10,7.43a38.13,38.13,0,0,0,8,.81l-16.14-12c.24-.25.48-.49.73-.72Zm0,0h0Zm0,0h0Z"/><path class="cls-16" d="M41,15.56a17.76,17.76,0,0,1,2.93,3.79A13.16,13.16,0,0,1,44.41,17L66.48,33.42c-1.12.09-2.31.13-3.55.13s-2.28,0-3.34-.11L36.2,16c1.55-.21,3.13-.36,4.75-.47Z"/><path class="cls-17" d="M30.38,17,45.63,28.39a10,10,0,0,1-.25,1.11L29.05,17.35l1.27-.3Z"/><path class="cls-17" d="M10.91,26.12,28,38.86l-1.33,0h-.39l-16.14-12c.24-.25.48-.49.73-.72h0Z"/><path class="cls-17" d="M19.38,20.64,40.1,36.07c-.32.18-.66.36-1,.53L18.31,21.15l1.07-.51Z"/><path class="cls-17" d="M44.78,16,68,33.26l-1.54.16L44.41,17c.11-.34.23-.69.37-1Z"/><g id="Smirking"><g id="Facing_Left" data-name="Facing Left"><path class="cls-18" d="M33.81,5c5.59,2.59,9.87,7.11,10.09,13.6a11.83,11.83,0,0,1-2,7.21c-3.21,4.7-9.41,6.78-14.87,7a23.23,23.23,0,0,1-8.71-1.26,14.94,14.94,0,0,1-6.8-4.68,12,12,0,0,1-2.43-8.21c.35-6.28,3.76-10.92,9.26-13.6a3.77,3.77,0,0,1,3.73-3.75,3.81,3.81,0,0,1,1,.12A3.69,3.69,0,0,1,26,0a3.9,3.9,0,0,1,3,1.44,3.42,3.42,0,0,1,1-.13A4,4,0,0,1,33.81,5Z"/><path class="cls-19" d="M32.73,5a2.86,2.86,0,0,0-2.81-2.64,2.6,2.6,0,0,0-1.39.4h0a4,4,0,0,0-1.36,1.84,4.09,4.09,0,0,1,1-2.47A2.81,2.81,0,0,0,26,1.07a2.63,2.63,0,0,0-2.47,1.72,4.33,4.33,0,0,0,0,2.34,4.34,4.34,0,0,1-.7-2.63,2.68,2.68,0,0,0-3.4,2.71,2.33,2.33,0,0,0,.06.53h0A4.49,4.49,0,0,0,20.92,7.6,4.32,4.32,0,0,1,18.85,6c-5.13,2.49-8.37,6.76-8.71,12.72-1,17.8,33.29,17,32.69-.08-.22-6.23-4.48-10.55-10.12-13a4.1,4.1,0,0,0-2.27-.35A3.81,3.81,0,0,1,32.73,5Z"/><path class="cls-20" d="M20.92,7.6A4.32,4.32,0,0,1,18.85,6l-.55.28A4,4,0,0,0,20.92,7.6Z"/><path class="cls-20" d="M23.45,4.92c0,.07,0,.15.06.21l-.06-.21Zm.06.21a4.07,4.07,0,0,1-1.16-2.72,3.4,3.4,0,0,1,.46.09A4.34,4.34,0,0,0,23.51,5.13Z"/><path class="cls-20" d="M27.19,4.56a.14.14,0,0,0,0,.06l0-.06Zm0,.06a3.93,3.93,0,0,1,.59-2.87,3,3,0,0,1,.39.4A4.09,4.09,0,0,0,27.17,4.62Z"/><path class="cls-20" d="M32.73,5a2.62,2.62,0,0,0-.12-.62,3.87,3.87,0,0,0-2.17.95A3.81,3.81,0,0,1,32.73,5Z"/><path class="cls-20" d="M13.08,27.07c8.14,8.53,30.24,5.32,29.75-8.41a13.31,13.31,0,0,0-5.5-10.28C44.64,21.43,36.64,31.89,22,30.44A22.86,22.86,0,0,1,13.08,27.07Z"/><path class="cls-18" d="M21,12.68C22.71,12,23,9.44,22.42,8.28A7.33,7.33,0,0,1,21,12.68Z"/><path class="cls-18" d="M23.78,9.09c.17,1.94.84,2.55,1.79,2.46A8.16,8.16,0,0,1,23.78,9.09Z"/><path class="cls-18" d="M21.91,8.85C21.89,10,20.75,11.23,20,11A6.1,6.1,0,0,0,21.91,8.85Z"/><path class="cls-18" d="M16,18.6a2.1,2.1,0,0,1,1.19,2.61,1.9,1.9,0,0,1-2.5,1.17,2.08,2.08,0,0,1-1.18-2.6A1.9,1.9,0,0,1,16,18.6Z"/><path class="cls-21" d="M16.2,19A.91.91,0,0,1,16.74,20a.75.75,0,0,1-1,.47.9.9,0,0,1-.54-1.07A.75.75,0,0,1,16.2,19Z"/><path class="cls-18" d="M20.17,23.16a3.06,3.06,0,0,1,.37,0c.09,0,.14.08.13.14s-.07.1-.16.14a.85.85,0,0,1-.38.09,1,1,0,0,1-.35-.15c-.09-.06-.14-.11-.14-.17s.07-.1.17-.11A2.73,2.73,0,0,1,20.17,23.16Z"/><path class="cls-18" d="M27.15,18.49A2.19,2.19,0,0,0,25.26,21,2.35,2.35,0,0,0,27.86,23a2.17,2.17,0,0,0,1.88-2.52A2.34,2.34,0,0,0,27.15,18.49Z"/><path class="cls-21" d="M26.57,19a1,1,0,0,0-.79,1.08.88.88,0,0,0,1,.8,1,1,0,0,0,.79-1.08A.89.89,0,0,0,26.57,19Z"/><path class="cls-18" d="M18,24.68a1.53,1.53,0,0,0,2.1,0c1,1,2.74,1.08,4.3.67a6,6,0,0,1-2,.44l0,.06c-.22.63-.64,1.33-1.36,1.42-1.16.15-1.8-1-2.25-1.89l-.07-.14A1.09,1.09,0,0,1,18,24.68Z"/><path class="cls-22" d="M19,25.28c.49,1,1.06,1.91,2,1.78.55-.07,1-.6,1.19-1.27A3.38,3.38,0,0,1,20.09,25,2.05,2.05,0,0,1,19,25.28Z"/></g><g id="Creamy_1" data-name="Creamy 1"><path class="cls-18" d="M84.89,21.74a16.66,16.66,0,0,1,.29,2.69A11,11,0,0,1,83,31.57c-3.5,4.58-10.17,6-15.65,5.66S55.4,34.64,52.5,29.66a11.06,11.06,0,0,1-1.31-7.36,16.68,16.68,0,0,1,.62-2.64,2,2,0,0,1-.11-.29,3.52,3.52,0,0,1,.64-2.79C56,10.63,62.1,6.87,69.19,7.32s12.68,4.93,15.56,11.3A3.49,3.49,0,0,1,85,21.47,1.17,1.17,0,0,1,84.89,21.74Z"/><path class="cls-19" d="M52.63,20.51a16.64,16.64,0,0,0-.43,1.94c-2.58,16.91,32.41,19.1,32,2a15.83,15.83,0,0,0-.18-2,4.65,4.65,0,0,1-2,.26,2.15,2.15,0,0,1-.34,0A5.33,5.33,0,0,1,80,22a2.53,2.53,0,0,0-1.11-.4,3.84,3.84,0,0,0-1.1.4,3.61,3.61,0,0,1-2.06.45A3.36,3.36,0,0,1,74,21.7a1.51,1.51,0,0,0-.87-.36H73a5.24,5.24,0,0,0-1.77.77,4.74,4.74,0,0,1-6-.38,5.15,5.15,0,0,0-1.65-1h-.15a1.57,1.57,0,0,0-.9.25,3.35,3.35,0,0,1-1.74.5,3.43,3.43,0,0,1-2-.7,3.79,3.79,0,0,0-1-.53,2.45,2.45,0,0,0-1.15.26A5.5,5.5,0,0,1,55,21a1.93,1.93,0,0,1-.34,0A4.51,4.51,0,0,1,52.63,20.51Z"/><path class="cls-20" d="M53.71,29.66c6.59,9.89,30.82,9,30.45-5.2a15.83,15.83,0,0,0-.18-2,3.87,3.87,0,0,1-1.4.27c-.66,8.36-6.22,13.08-17.3,11.72A25,25,0,0,1,53.71,29.66Z"/><circle class="cls-23" cx="74.72" cy="27.07" r="2.12" transform="translate(-3.67 14.01) rotate(-10.46)"/><path class="cls-21" d="M74.21,25.29a1,1,0,0,0-.12,1.95,1,1,0,0,0,1-.91A1,1,0,0,0,74.21,25.29Z"/><path class="cls-18" d="M67.89,28.19a2.9,2.9,0,0,1,.45,0c.11,0,.18.1.17.17s-.08.12-.2.18a1.19,1.19,0,0,1-.46.12,1.1,1.1,0,0,1-.44-.18c-.11-.07-.18-.13-.17-.2s.08-.12.2-.14A2.65,2.65,0,0,1,67.89,28.19Z"/><path class="cls-18" d="M67.72,30.84c1,.86,2.86,1.39,4,.43-.59,1.23-3.14.8-4,.12-.92.57-3.5.68-3.94-.62C64.7,31.86,66.6,31.56,67.72,30.84Z"/><path class="cls-18" d="M61.38,24.11a2.12,2.12,0,1,1-2.25,2A2.11,2.11,0,0,1,61.38,24.11Z"/><path class="cls-21" d="M62,24.52a1,1,0,0,1,.91,1,1,1,0,0,1-1,.91A1,1,0,1,1,62,24.52Z"/><path class="cls-24" d="M53.13,17.07c-.8,1.3-1.25,2.85,1.53,3,1,.07,2-.87,3.24-.77.94.08,1.88,1.27,2.92,1.24,1.37,0,1.26-.74,2.66-.76,1.56,0,2.73,2.11,4.79,2.24s3.49-1.84,5-1.62,1.19.87,2.55,1.08c1,.16,2.11-.9,3.05-.86,1.24.05,2.07,1.11,3.11,1.17,2.78.18,2.53-1.42,1.9-2.81C80.8,12.15,75.07,8.59,69.14,8.25S57.08,10.66,53.13,17.07Z"/><path class="cls-25" d="M82.45,21.83c2.31,0,2-1.51,1.46-2.83A17.78,17.78,0,0,0,73,9C78.13,12.56,81.77,17.25,82.45,21.83Z"/><path class="cls-21" d="M60.58,11.21c.41-.19.66-.11.71.07.09.38-1.28,1.24-1.71,1.58a27.56,27.56,0,0,0-2.42,2.23.39.39,0,0,1-.57,0c-.38-.39,1.11-2,1.48-2.35A10.11,10.11,0,0,1,60.58,11.21Z"/><path class="cls-21" d="M62,10.3a.44.44,0,0,1,.44.42.44.44,0,0,1-.43.44.43.43,0,0,1-.43-.43A.42.42,0,0,1,62,10.3Z"/></g><path class="cls-26" d="M62,35.42c-.3-6.72-4-11.7-9.76-14.72a4.09,4.09,0,0,0-3.9-4.1,3.73,3.73,0,0,0-1,.09A4.09,4.09,0,0,0,41,16.4a4.44,4.44,0,0,0-1-.18A4.07,4.07,0,0,0,35.69,20c-6,2.49-10.15,7.12-11,13.78a12.32,12.32,0,0,0,1.27,7.53c.13.05,1.69.59,1.68.57l.48.15.21.05.2.08a72.18,72.18,0,0,0,17.85,3,75.93,75.93,0,0,0,10.29-.22l0,0,.13-.1-.17.13,1.91-.2a13.3,13.3,0,0,0,1.2-1.39A12.15,12.15,0,0,0,62,35.42Z"/><path class="cls-18" d="M61.3,35.53c-.59-6.7-4.49-11.51-10.41-14.26a4.1,4.1,0,0,0-5.12-3.79,4.09,4.09,0,0,0-6.36,0,4.1,4.1,0,0,0-5.12,3.79C28.37,24,24.48,28.83,23.88,35.53A12.19,12.19,0,0,0,25.49,43l1.7.5.49.13.21,0a.8.8,0,0,1,.2.07,72.15,72.15,0,0,0,18,2.19,77.09,77.09,0,0,0,10.26-.68l0,0,.12-.1-.17.14,1.9-.29a12.3,12.3,0,0,0,1.15-1.44A12.16,12.16,0,0,0,61.3,35.53Z"/><path class="cls-19" d="M60.23,37.15a1.77,1.77,0,0,1,0,.23v.08a2.28,2.28,0,0,1,0,.26.45.45,0,0,1,0,.11c0,.06,0,.13,0,.2s0,.23,0,.34l-.06.36c0,.09,0,.18,0,.27s0,.13,0,.2l0,.15a1.36,1.36,0,0,0,0,.17c-.05.21-.11.41-.17.6s0,.15-.07.23l0,.08a.88.88,0,0,0,0,.15,2,2,0,0,0-.08.22l0,.06c0,.09-.07.17-.1.26s-.11.23-.16.35l-.06.14-.09.17-.21.38a2,2,0,0,1-.11.2l-.12.2-.2.31-.23.33-.12.17-.16.2v0l-.22.27h0a2.75,2.75,0,0,1-.22.26l-.27.29-.19.2,0,0-.18.17-.31.29-.11.09,0,0c-1.32.18-2.67.32-4,.43-2,.17-4.1.25-6.21.25a71.36,71.36,0,0,1-18.77-2.41l-.09,0h0A10.91,10.91,0,0,1,25,35.63c.56-6.27,4.19-10.76,9.79-13.36A4.36,4.36,0,0,0,37,23.93a4.5,4.5,0,0,1-1.49-2h0a2.5,2.5,0,0,1,0-.55,2.66,2.66,0,0,1,.1-.75,2.93,2.93,0,0,1,1.93-2.05,2.82,2.82,0,0,1,.92-.15,3,3,0,0,1,.67.08l.13,0c0,.11,0,.22,0,.33a4,4,0,0,0,.08.94h0a4.2,4.2,0,0,0,.6,1.5,4,4,0,0,1-.15-.85h0a5.34,5.34,0,0,1,.08-1.3,1.89,1.89,0,0,1,.1-.31h0a3.18,3.18,0,0,1,.16-.32,2.73,2.73,0,0,1,.49-.63,2.92,2.92,0,0,1,2.07-.86,3,3,0,0,1,1.72.55,2.89,2.89,0,0,1,.61.6l-.12.15a3.9,3.9,0,0,0-.36.5,4.16,4.16,0,0,0-.66,1.94,4.63,4.63,0,0,1,.68-1.14c.11-.13.22-.26.33-.37a2.47,2.47,0,0,1,.5-.42h0l.08-.05a3,3,0,0,1,1.31-.37h.12a2.94,2.94,0,0,1,2.93,2.68.37.37,0,0,1,0,.11,4.21,4.21,0,0,0-2.48.33,4.59,4.59,0,0,1,2.44.38,17.55,17.55,0,0,1,8.17,6.63l.24.4.2.35v0c.07.13.14.26.2.39h0l.2.4.18.42h0l.17.39s0,.08,0,.12.09.22.13.33h0l.15.43v0c0,.13.09.27.13.41s.08.27.11.41a.5.5,0,0,1,0,.13l.09.37.09.41c0,.06,0,.12,0,.19l.06.34c0,.16.06.32.08.48s0,.26,0,.38a1.5,1.5,0,0,1,0,.2c0,.14,0,.27,0,.41A11.19,11.19,0,0,1,60.23,37.15Z"/><path class="cls-20" d="M37,23.93a4.29,4.29,0,0,1-2.16-1.66l-.61.29A4.17,4.17,0,0,0,37,23.93Z"/><path class="cls-20" d="M39.78,21.12l.06.23-.06-.23Zm.06.23a4.2,4.2,0,0,1-1.17-2.86,2.75,2.75,0,0,1,.5.09A4.36,4.36,0,0,0,39.84,21.35Z"/><path class="cls-20" d="M43.81,20.75l0,.07,0-.07Zm0,.07a4.16,4.16,0,0,1,.74-3,2.72,2.72,0,0,1,.4.43A4.4,4.4,0,0,0,43.78,20.82Z"/><path class="cls-20" d="M49.76,21.26a2.68,2.68,0,0,0-.11-.65,4.33,4.33,0,0,0-2.37,1A4.21,4.21,0,0,1,49.76,21.26Z"/><path class="cls-18" d="M41,27.9a3.24,3.24,0,0,0,1.18-4.78A6.7,6.7,0,0,1,41,27.9Z"/><path class="cls-18" d="M43.16,23.78c.5,2,1.44,2.55,2.6,2.35A9.82,9.82,0,0,1,43.16,23.78Z"/><path class="cls-18" d="M41.26,23.76c.15,1.23-1.09,2.63-2.06,2.51A6.67,6.67,0,0,0,41.26,23.76Z"/><path class="cls-20" d="M27.15,43.43l.14.08-.09,0Z"/><path class="cls-20" d="M60.23,37.15a1.77,1.77,0,0,1,0,.23v.08a2.28,2.28,0,0,1,0,.26.45.45,0,0,1,0,.11c0,.06,0,.13,0,.2s0,.23,0,.34l-.06.36c0,.09,0,.18,0,.27s0,.13,0,.2l0,.15a1.36,1.36,0,0,0,0,.17c-.05.21-.11.41-.17.6s0,.15-.07.23l0,.08a.88.88,0,0,0,0,.15,2,2,0,0,0-.08.22l0,.06c0,.09-.07.17-.1.26s-.11.23-.16.35l-.06.14-.09.17-.21.38a2,2,0,0,1-.11.2l-.12.2-.2.31-.23.33-.12.17-.16.2v0l-.22.27h0a2.75,2.75,0,0,1-.22.26l-.27.29-.19.2,0,0-.18.17-.31.29-.11.09,0,0c-1.32.18-2.67.32-4,.43,5.25-3.1,7-9.17,5.62-17.07l.24.4.2.35v0c.07.13.14.26.2.39h0l.2.4.18.42h0l.17.39s0,.08,0,.12.09.22.13.33h0l.15.43v0c0,.13.09.27.13.41s.08.27.11.41a.5.5,0,0,1,0,.13l.09.37.09.41c0,.06,0,.12,0,.19l.06.34c0,.16.06.32.08.48s0,.26,0,.38a1.5,1.5,0,0,1,0,.2c0,.14,0,.27,0,.41A11.19,11.19,0,0,1,60.23,37.15Z"/><path class="cls-18" d="M42.59,38.39a3.28,3.28,0,0,1,.43,0c.1,0,.17.07.17.13s-.06.13-.17.19a.7.7,0,0,1-.85,0c-.11,0-.18-.11-.18-.17s.07-.13.18-.15A2.56,2.56,0,0,1,42.59,38.39Z"/><path class="cls-18" d="M45.39,41.8v.06a7.19,7.19,0,0,1-.34,1.58c-.93,2.72-4,2.72-4.92,0a7.79,7.79,0,0,1-.33-1.58V41.8a1.68,1.68,0,0,1-1.32-1.13c.83,1.28,2.31,1,4.12-.11,1.81,1.13,3.29,1.39,4.12.11A1.68,1.68,0,0,1,45.39,41.8Z"/><path class="cls-27" d="M44.77,43.34a7.37,7.37,0,0,0,.33-1.51A4.72,4.72,0,0,1,42.59,41a4.72,4.72,0,0,1-2.5.85,6.78,6.78,0,0,0,.32,1.51C41.25,45.8,43.93,45.8,44.77,43.34Z"/><path class="cls-22" d="M40.66,43.92a2.1,2.1,0,0,0,3.86,0,2.52,2.52,0,0,0-3.86,0Z"/><path class="cls-18" d="M48,36.72c.9-2.18,3.63-2.75,4.62-1C51.38,35,49.51,35.62,48,36.72Z"/><path class="cls-28" d="M52.08,37.32c0,.58.56,1.22,1,1.14a3.1,3.1,0,0,1-1-1.14Zm-2,.44c0,.58.56,1.22,1,1.14a3.08,3.08,0,0,1-1-1.14Zm.52-.11a3.08,3.08,0,0,0,1,1.14c-.45.08-1.06-.56-1-1.14Zm.47-.11a3,3,0,0,0,1,1.14c-.45.08-1.06-.56-1-1.14Zm.52-.11a3,3,0,0,0,1,1.14C52.18,38.65,51.57,38,51.62,37.43Z"/><path class="cls-18" d="M37.15,36.72c-.91-2.18-3.63-2.75-4.62-1C33.8,35,35.67,35.62,37.15,36.72Z"/><path class="cls-28" d="M33.1,37.32c0,.58-.56,1.22-1,1.14a3.08,3.08,0,0,0,1-1.14Zm2,.44c0,.58-.56,1.22-1,1.14a3,3,0,0,0,1-1.14Zm-.52-.11a3,3,0,0,1-1,1.14c.45.08,1.06-.56,1-1.14Zm-.46-.11a3.1,3.1,0,0,1-1,1.14c.46.08,1.07-.56,1-1.14Zm-.52-.11a3.1,3.1,0,0,1-1,1.14C33,38.65,33.62,38,33.57,37.43Z"/></g></g></g></svg>