<svg xmlns="http://www.w3.org/2000/svg" viewBox="0 0 135.09 30.36"><defs><style>.cls-1{font-size:5.12px;font-family:Montserrat-Light, Montserrat;font-weight:300;}.cls-1,.cls-10,.cls-11{fill:#59251b;}.cls-2{letter-spacing:-0.05em;}.cls-3{letter-spacing:-0.01em;}.cls-4{letter-spacing:0em;}.cls-5{letter-spacing:-0.03em;}.cls-6{letter-spacing:0em;}.cls-7{letter-spacing:-0.01em;}.cls-8{letter-spacing:0em;}.cls-9{letter-spacing:-0.02em;}.cls-10{fill-rule:evenodd;}</style></defs><g id="Layer_2" data-name="Layer 2"><g id="Layer_1-2" data-name="Layer 1"><text class="cls-1" transform="translate(0 4.35)"><tspan class="cls-2">P</tspan><tspan x="3.43" y="0">A</tspan><tspan class="cls-3" x="7.04" y="0">R</tspan><tspan class="cls-4" x="10.67" y="0">TICI</tspan><tspan class="cls-2" x="20.23" y="0">P</tspan><tspan class="cls-5" x="23.66" y="0">A</tspan><tspan x="27.09" y="0">TE IN OUR BUG BOUN</tspan><tspan class="cls-6" x="84.58" y="0">T</tspan><tspan x="87.45" y="0">Y </tspan><tspan class="cls-7" x="91.96" y="0">P</tspan><tspan class="cls-8" x="95.57" y="0">ROGRAM </tspan><tspan class="cls-9" x="121" y="0">W</tspan><tspan x="126.54" y="0">ITH</tspan></text><path class="cls-10" d="M23.81,18.14l6.81,6.93,6.73-6.86,5.53,5.62-6.42,6.53-1.65-1.63,4.81-4.9-2.27-2.3-6.73,6.85-6.81-6.93-2.23,2.28,4.88,5-1.65,1.64-6.49-6.61Z"/><path class="cls-10" d="M37.38,21.45l-6.8-6.92-6.74,6.85-5.52-5.62,6.42-6.53,1.65,1.63-4.81,4.9,2.26,2.3,6.74-6.85,6.8,6.93,2.24-2.28-4.88-5,1.65-1.63,6.49,6.6Z"/><path class="cls-10" d="M29.56,30.2V25.83h2.22V30.2Z"/><path class="cls-10" d="M29.56,13.76V9.39h2.22v4.37Z"/><path class="cls-11" d="M50.36,14.38H48.15V25.53h2.21Z"/><path class="cls-11" d="M61.6,17.33a2.64,2.64,0,0,0-2.45,1.37,2.66,2.66,0,0,0-2.51-1.37,2.29,2.29,0,0,0-2.1,1l-.24-.88h-2v8.05h2.17V21c0-1.2.62-1.77,1.53-1.77s1.46.54,1.46,1.86v4.41h2.09V21.07c0-1.25.68-1.81,1.53-1.81s1.46.54,1.46,1.75v4.54h2.18v-5A3,3,0,0,0,61.6,17.33Z"/><path class="cls-11" d="M75.74,17.33a2.64,2.64,0,0,0-2.45,1.37,2.66,2.66,0,0,0-2.51-1.37,2.3,2.3,0,0,0-2.1,1l-.23-.88h-2v8.05H68.6V21c0-1.2.62-1.77,1.53-1.77s1.46.54,1.46,1.86v4.41h2.09V21.07c0-1.25.68-1.81,1.53-1.81s1.46.54,1.46,1.75v4.54h2.18v-5A3,3,0,0,0,75.74,17.33Z"/><path class="cls-11" d="M85.86,17.48v4.41c0,1.2-.56,1.91-1.63,1.93s-1.67-.58-1.67-1.83V17.48H80.5v4.79a3.09,3.09,0,0,0,3.25,3.42,2.4,2.4,0,0,0,2.07-1l.11.88h2v-8Z"/><path class="cls-11" d="M94.28,17.33a2.68,2.68,0,0,0-2.43,1.11l-.13-1h-2v8.05h2.17V21.28c0-1.31.62-2.1,1.76-2.1s1.69.69,1.69,2v4.33h2.19V20.75A3.09,3.09,0,0,0,94.28,17.33Z"/><path class="cls-11" d="M107,21.38a3.79,3.79,0,0,0-4-4.05,3.87,3.87,0,0,0-4,4.18,3.88,3.88,0,0,0,4,4.19,3.75,3.75,0,0,0,3.92-2.8h-2.19A1.64,1.64,0,0,1,103.08,24a1.81,1.81,0,0,1-1.91-1.85H107ZM103,19a1.71,1.71,0,0,1,1.83,1.66h-3.64A1.71,1.71,0,0,1,103,19Z"/><path class="cls-11" d="M107.84,17.48v1.89h1.24v6.16h2.19V19.37h1.84V17.48h-1.84v-.82c0-.57.15-1,1-1h.8V13.89h-1.29c-2,0-2.74,1-2.74,2.55v1Z"/><path class="cls-11" d="M114.54,16.24h2.2l0-2.35h-2.2Zm0,9.29h2.17v-8h-2.17Z"/></g></g></svg>