<?xml version="1.0" encoding="utf-8"?>
<!-- Generator: Adobe Illustrator 25.2.0, SVG Export Plug-In . SVG Version: 6.00 Build 0)  -->
<svg version="1.1" id="Layer_1" xmlns="http://www.w3.org/2000/svg" xmlns:xlink="http://www.w3.org/1999/xlink" x="0px" y="0px"
	 viewBox="0 0 160.3 28" style="enable-background:new 0 0 160.3 28;" xml:space="preserve">
<g>
	<path d="M22.6,7c0,1.3-0.4,2.5-1.1,3.5c-0.7,1-1.7,1.9-2.9,2.5c0.8,0.5,1.4,1.2,1.9,2c0.5,0.8,0.7,1.7,0.7,2.6c0,1.1-0.3,2.3-1,3.4
		c-0.7,1.1-1.6,2.1-2.7,2.9s-2.4,1.5-3.9,2.1c-1.5,0.5-2.9,0.8-4.5,0.8c-1.6,0-3.1-0.3-4.3-0.9c-1.2-0.6-2.2-1.5-2.9-2.6
		c0.2-0.6,0.5-1.4,0.8-2.4C3.1,20,3.5,19,3.9,18c0.4-1,0.8-2.1,1.3-3.1c0.4-1,0.8-2,1.2-2.8c0.8-1.8,1.5-3.3,2.2-4.5
		c0.6-1.2,1.2-2.1,1.7-2.8C9.1,5.1,8.1,5.5,7.1,6C6.2,6.4,5.5,6.9,5,7.3C4.8,7.2,4.6,7,4.4,6.7C4.2,6.5,4.1,6.2,3.9,5.9
		C3.7,5.6,3.5,5.3,3.4,5C3.3,4.6,3.2,4.4,3.2,4.1C3.8,3.7,4.5,3.4,5.4,3c0.9-0.3,1.8-0.6,2.9-0.9c1-0.3,2.1-0.5,3.2-0.6
		c1.1-0.1,2.1-0.2,3.1-0.2c2.5,0,4.5,0.5,6,1.5C21.9,3.8,22.6,5.2,22.6,7z M10.6,14.6c-0.4-0.2-0.8-0.5-1.1-0.9
		c-0.5,1.1-0.9,2.1-1.4,3.2c-0.4,1-0.8,2-1.2,2.9c-0.3,0.9-0.6,1.7-0.8,2.3c-0.2,0.7-0.3,1.1-0.3,1.4c0.3,0.2,0.6,0.3,1.1,0.4
		C7.2,24,7.7,24,8.4,24c1.4,0,2.8-0.2,4.1-0.6c1.3-0.4,2.5-0.9,3.5-1.6c1-0.7,1.8-1.5,2.4-2.4c0.6-0.9,0.9-1.8,0.9-2.8
		c0-1.4-0.6-2.4-1.8-3c-1.6,0.7-3.5,1-5.6,1c-0.3,0-0.5,0-0.7,0S10.8,14.6,10.6,14.6z M16.7,3.6c-0.4,0-0.9,0-1.4,0.1
		c-0.5,0.1-1,0.1-1.6,0.2c0.1,0.1,0.2,0.2,0.2,0.3C14,4.3,14,4.4,14.1,4.5c-0.2,0.3-0.4,0.6-0.7,1.1c-0.3,0.5-0.6,1.1-0.9,1.7
		c-0.3,0.6-0.7,1.4-1.1,2.1c-0.4,0.8-0.7,1.6-1.1,2.4c0.4-0.1,0.8-0.2,1.3-0.2c0.5-0.1,1-0.1,1.5-0.1c0.3,0,0.5,0,0.8,0
		c0.3,0,0.5,0.1,0.8,0.1c1-0.2,1.9-0.4,2.7-0.7c0.8-0.3,1.5-0.7,2.1-1.1c0.6-0.4,1-0.9,1.4-1.4c0.3-0.5,0.5-1.1,0.5-1.7
		c0-1-0.4-1.8-1.2-2.3C19.4,3.9,18.2,3.6,16.7,3.6z"/>
	<path d="M34.4,11.7c0.2,0,0.5,0,0.7,0.1c0.3,0.1,0.5,0.2,0.8,0.3c0.2,0.1,0.4,0.2,0.6,0.4c0.2,0.1,0.2,0.2,0.2,0.3
		c-0.4,0.9-0.8,1.8-1.2,2.7c-0.4,0.9-0.7,1.8-0.9,2.6c-0.3,0.8-0.4,1.6-0.6,2.3s-0.2,1.3-0.2,1.9c0,0.6,0.1,1.1,0.2,1.5
		s0.3,0.7,0.6,0.8c-0.3,0.2-0.6,0.3-1,0.4c-0.4,0.1-0.8,0.2-1.1,0.2c-1.1,0-1.7-0.8-1.7-2.3c0-1.2,0.4-2.8,1.2-4.9
		c-0.4,1-0.9,1.9-1.5,2.7c-0.5,0.9-1.1,1.6-1.7,2.3c-0.6,0.7-1.1,1.2-1.7,1.6c-0.6,0.4-1.1,0.7-1.6,0.7c-0.8,0-1.4-0.4-1.9-1.1
		c-0.5-0.7-0.7-1.6-0.7-2.7c0-1.2,0.3-2.4,0.8-3.8c0.5-1.3,1.2-2.5,1.9-3.7s1.7-2.1,2.6-2.8c0.9-0.8,1.8-1.1,2.7-1.1
		c0.2,0.1,0.4,0.2,0.7,0.4c0.3,0.2,0.5,0.4,0.8,0.7c0.2,0.3,0.4,0.5,0.6,0.8c0.2,0.3,0.3,0.5,0.3,0.7c-0.8,0.1-1.7,0.5-2.6,1.2
		c-0.9,0.7-1.7,1.5-2.4,2.5c-0.7,1-1.3,2-1.8,3.1c-0.5,1.1-0.7,2.2-0.7,3.1c0,0.4,0.1,0.7,0.4,0.8c0.6-0.1,1.3-0.6,2.1-1.6
		c0.8-0.9,1.8-2.3,2.9-4.3c0.2-0.4,0.4-0.8,0.7-1.3c0.3-0.5,0.5-1,0.8-1.5c0.3-0.5,0.5-1,0.8-1.5C33.9,12.7,34.1,12.2,34.4,11.7z"/>
	<path d="M41.9,25.6c-1.2-0.1-2.2-0.7-2.9-1.6c-0.7-0.9-1.1-2.1-1.1-3.5c0-0.8,0.1-1.7,0.4-2.6c0.3-0.9,0.6-1.8,1.1-2.6
		c0.5-0.9,1-1.7,1.6-2.4s1.3-1.4,2.1-2c1.2-0.9,2.2-1.3,3.3-1.3c0.7,0.4,1.3,1.1,2,2.2c0.1,0,0.2,0,0.3,0c0.1,0,0.2,0,0.3,0
		c1.1,0,1.7,1,1.7,3c0,1.3-0.2,2.6-0.6,3.8c-0.4,1.2-1,2.3-1.8,3.2s-1.7,1.8-2.8,2.5C44.3,24.8,43.2,25.3,41.9,25.6z M43.5,15.6
		c-0.4,0.5-0.7,1-1,1.6c-0.3,0.6-0.6,1.1-0.8,1.7c-0.2,0.6-0.4,1.1-0.5,1.7C41,21.1,41,21.6,41,22c0,0.5,0.1,1,0.3,1.5
		c0.2,0.5,0.4,0.7,0.6,0.8c0.9-0.2,1.8-0.6,2.6-1.2s1.5-1.3,2.1-2.2c0.6-0.9,1-1.8,1.4-2.9c0.3-1.1,0.5-2.3,0.5-3.5
		c0-0.5,0-1-0.1-1.3c-0.1-0.3-0.2-0.6-0.3-0.8c-0.9,0.3-1.8,0.7-2.5,1.3C44.7,14.3,44.1,14.9,43.5,15.6z"/>
	<path d="M73.1,11.3c0.7,0,1.2,0.2,1.6,0.6s0.6,0.9,0.6,1.6c0,0.2,0,0.3,0,0.5c0,0.2-0.1,0.3-0.1,0.5c-0.3,0-0.6-0.1-0.9-0.1
		c-0.3,0-0.7,0-1.2,0c-0.9,0-1.9,0.1-2.8,0.3s-1.9,0.3-2.7,0.4c-0.9,2.2-1.7,4.3-2.3,6.3c-0.6,2-1.1,3.9-1.4,5.8
		c-0.7-0.2-1.4-0.5-1.9-0.9s-1.1-1.1-1.6-1.9c0.1-0.3,0.3-0.7,0.5-1.2c0.2-0.5,0.5-1.1,0.8-1.8c0.3-0.7,0.6-1.6,1.1-2.7
		c0.4-1,0.9-2.3,1.5-3.8c-0.9-0.3-1.5-0.8-1.7-1.6c0.1-0.1,0.4-0.2,0.9-0.4c0.5-0.1,1.1-0.3,1.8-0.5c0.3-0.8,0.6-1.6,0.8-2.2
		C66,9.6,66.2,9,66.4,8.4c0.2-0.6,0.4-1.1,0.5-1.7c0.2-0.6,0.3-1.2,0.4-1.8h-0.2c-0.8,0-1.5-0.2-1.9-0.6c-0.5-0.4-0.7-0.9-0.7-1.5
		c0-0.2,0-0.4,0.1-0.6c0.1-0.2,0.1-0.4,0.2-0.6c0.4,0,0.8,0,1.2,0c0.4,0,0.9,0,1.5,0c1.3,0,2.6,0,3.7,0c1.2,0,2.2-0.1,3.1-0.2
		c0.9-0.1,1.7-0.2,2.4-0.3c0.7-0.1,1.2-0.1,1.6-0.1c0.5,0,0.9,0.3,1.3,0.8C80,2.4,80.3,3.1,80.5,4c-0.7-0.1-1.2-0.1-1.6-0.1
		s-0.8,0-1.1,0c-1.1,0-2.1,0-3,0.1s-1.7,0.2-2.5,0.3c-0.1,0.2-0.3,0.4-0.4,0.7s-0.4,0.7-0.6,1.2c-0.3,0.5-0.6,1.2-1,2.1
		c-0.4,0.9-0.9,2-1.5,3.3c0.8-0.1,1.6-0.2,2.4-0.3C71.9,11.3,72.6,11.3,73.1,11.3z"/>
	<path d="M76.9,22.3c0-0.2,0-0.4,0-0.7c0-0.3,0.1-0.7,0.2-1.1c0.1-0.5,0.2-1,0.3-1.7s0.3-1.5,0.5-2.4c0-0.2,0.1-0.5,0.3-1
		c0.1-0.5,0.3-1,0.6-1.5s0.5-1,0.9-1.5c0.3-0.5,0.8-0.8,1.3-1.1c0.4,0.1,0.8,0.3,1.4,0.6s1.1,0.8,1.5,1.4c-0.5,0.5-0.9,1.1-1.2,1.6
		c-0.3,0.5-0.6,1.1-0.9,1.7c-0.3,0.6-0.5,1.2-0.7,1.8c-0.2,0.6-0.5,1.3-0.7,2c-0.2,0.6-0.4,1.2-0.6,1.8c-0.2,0.6-0.3,1.2-0.3,1.6
		c0,0.4,0,0.6,0,0.8S79.3,25,79.2,25c-0.1,0-0.3-0.1-0.5-0.2c-0.3-0.1-0.5-0.3-0.8-0.5c-0.3-0.2-0.5-0.5-0.7-0.8
		S76.9,22.8,76.9,22.3z M82.9,8.6c0-0.1,0-0.3,0.1-0.6c-0.1-0.1-0.2-0.3-0.3-0.5c-0.1-0.2-0.1-0.4-0.1-0.6c0-0.2,0-0.4,0.1-0.8
		c0.1-0.3,0.1-0.7,0.2-1.1s0.2-0.8,0.3-1.2c0.1-0.4,0.3-0.8,0.4-1.1c0.3,0,0.6,0.1,0.9,0.2c0.4,0.1,0.7,0.3,1.1,0.5s0.7,0.5,1,0.7
		c0.3,0.3,0.6,0.5,0.7,0.7c-0.2,0.2-0.5,0.6-0.9,1c-0.4,0.4-0.7,0.8-1.1,1.3c-0.4,0.5-0.7,0.9-1,1.3s-0.5,0.7-0.6,0.9
		c-0.3,0-0.5-0.2-0.7-0.3C83,8.9,82.9,8.8,82.9,8.6z"/>
	<path d="M89.4,9.1c0.5,0.2,1.1,0.5,1.6,1.1c0.5,0.6,0.8,1.2,1.1,1.9c-0.2,0.6-0.6,1.3-1.1,2.1c-0.5,0.8-1,1.6-1.5,2.5
		c-0.5,0.8-0.9,1.6-1.3,2.4c-0.4,0.8-0.6,1.4-0.7,1.9c0.3-0.4,0.7-0.8,1.1-1.3c0.4-0.5,0.8-0.9,1.2-1.4c0.4-0.5,0.8-0.9,1.1-1.3
		c0.3-0.4,0.6-0.7,0.8-0.9c0.4-0.4,0.9-0.9,1.4-1.5c0.5-0.6,1.1-1.1,1.7-1.6c0.6-0.5,1.2-0.9,1.8-1.3s1.2-0.5,1.7-0.5
		c0.5,0,1,0.2,1.4,0.6s0.7,0.8,0.9,1.2c0,0-0.1,0.1-0.2,0.2c-0.2,0.1-0.4,0.3-0.7,0.6c-0.3,0.4-0.6,0.9-1,1.6
		c-0.4,0.7-0.7,1.4-1.1,2.2c-0.3,0.8-0.6,1.6-0.9,2.4c-0.2,0.8-0.3,1.5-0.3,2.2c0,0.5,0.1,0.9,0.2,1c0.1,0.1,0.3,0.2,0.6,0.2
		c0.2,0,0.5-0.1,0.7-0.2c0.3-0.1,0.5-0.2,0.6-0.2c0.1,0,0.2,0.1,0.2,0.3c0.1,0.1,0.1,0.3,0.1,0.4c-0.2,0.1-0.4,0.3-0.6,0.4
		c-0.2,0.1-0.5,0.3-0.7,0.4c-0.3,0.1-0.5,0.2-0.7,0.3c-0.2,0.1-0.5,0.1-0.6,0.1c-0.6,0-1.1-0.1-1.5-0.3c-0.4-0.2-0.7-0.4-0.9-0.7
		c-0.2-0.3-0.4-0.6-0.5-1.1c-0.1-0.4-0.1-0.8-0.1-1.3c0-0.3,0-0.5,0.1-0.9c0-0.3,0.1-0.7,0.3-1.1c0.1-0.4,0.3-0.9,0.5-1.6
		c0.2-0.6,0.5-1.3,0.9-2.2c0,0-0.3,0.1-0.9,0.4c-0.5,0.3-1.1,0.7-1.7,1.4c-1,0.9-1.9,1.9-2.7,2.8s-1.6,2-2.4,3.1
		c-0.5,0.7-0.9,1.2-1.2,1.7c-0.3,0.5-0.6,0.8-0.9,0.9c-0.4-0.3-0.8-0.6-1-1.1c-0.2-0.5-0.4-0.9-0.5-1.4c0-0.4,0.1-0.9,0.2-1.5
		c0.1-0.6,0.3-1.3,0.5-2c0.2-0.7,0.4-1.5,0.7-2.4s0.6-1.6,1-2.5c0.8-1.9,1.5-3.3,2.2-4.4C88.8,9.8,89.3,9.2,89.4,9.1z"/>
	<path d="M112.3,11.7c0.2,0,0.5,0,0.7,0.1c0.3,0.1,0.5,0.2,0.8,0.3c0.2,0.1,0.4,0.2,0.6,0.4c0.2,0.1,0.2,0.2,0.2,0.3
		c-0.4,0.9-0.8,1.8-1.2,2.7c-0.4,0.9-0.7,1.8-0.9,2.6s-0.4,1.6-0.6,2.3c-0.1,0.7-0.2,1.3-0.2,1.9c0,0.6,0.1,1.1,0.2,1.5
		s0.3,0.7,0.6,0.8c-0.3,0.2-0.6,0.3-1,0.4c-0.4,0.1-0.8,0.2-1.1,0.2c-1.1,0-1.7-0.8-1.7-2.3c0-1.2,0.4-2.8,1.2-4.9
		c-0.4,1-0.9,1.9-1.5,2.7c-0.5,0.9-1.1,1.6-1.7,2.3c-0.6,0.7-1.1,1.2-1.7,1.6c-0.6,0.4-1.1,0.7-1.6,0.7c-0.8,0-1.4-0.4-1.9-1.1
		s-0.7-1.6-0.7-2.7c0-1.2,0.3-2.4,0.8-3.8c0.5-1.3,1.2-2.5,1.9-3.7c0.8-1.1,1.7-2.1,2.6-2.8s1.8-1.1,2.7-1.1
		c0.2,0.1,0.4,0.2,0.7,0.4s0.5,0.4,0.8,0.7c0.2,0.3,0.4,0.5,0.6,0.8s0.3,0.5,0.3,0.7c-0.8,0.1-1.7,0.5-2.6,1.2
		c-0.9,0.7-1.7,1.5-2.4,2.5c-0.7,1-1.3,2-1.8,3.1c-0.5,1.1-0.7,2.2-0.7,3.1c0,0.4,0.1,0.7,0.4,0.8c0.6-0.1,1.3-0.6,2.1-1.6
		c0.8-0.9,1.8-2.3,2.9-4.3c0.2-0.4,0.4-0.8,0.7-1.3c0.3-0.5,0.5-1,0.8-1.5c0.3-0.5,0.5-1,0.8-1.5C111.8,12.7,112.1,12.2,112.3,11.7z
		"/>
	<path d="M121.4,9.1c0.5,0.2,1.1,0.5,1.6,1.1c0.5,0.6,0.8,1.2,1.1,1.9c-0.2,0.6-0.6,1.3-1.1,2.1c-0.5,0.8-1,1.6-1.5,2.5
		c-0.5,0.8-0.9,1.6-1.3,2.4c-0.4,0.8-0.6,1.4-0.7,1.9c0.3-0.4,0.7-0.8,1.1-1.3c0.4-0.5,0.8-0.9,1.2-1.4c0.4-0.5,0.8-0.9,1.1-1.3
		c0.3-0.4,0.6-0.7,0.8-0.9c0.4-0.4,0.9-0.9,1.4-1.5s1.1-1.1,1.7-1.6c0.6-0.5,1.2-0.9,1.8-1.3s1.2-0.5,1.7-0.5c0.5,0,1,0.2,1.4,0.6
		s0.7,0.8,0.9,1.2c0,0-0.1,0.1-0.2,0.2c-0.2,0.1-0.4,0.3-0.7,0.6c-0.3,0.4-0.6,0.9-1,1.6c-0.4,0.7-0.7,1.4-1.1,2.2
		c-0.3,0.8-0.6,1.6-0.9,2.4c-0.2,0.8-0.3,1.5-0.3,2.2c0,0.5,0.1,0.9,0.2,1c0.1,0.1,0.3,0.2,0.6,0.2c0.2,0,0.5-0.1,0.7-0.2
		c0.3-0.1,0.5-0.2,0.6-0.2c0.1,0,0.2,0.1,0.2,0.3c0.1,0.1,0.1,0.3,0.1,0.4c-0.2,0.1-0.4,0.3-0.6,0.4c-0.2,0.1-0.5,0.3-0.7,0.4
		c-0.3,0.1-0.5,0.2-0.7,0.3c-0.2,0.1-0.5,0.1-0.6,0.1c-0.6,0-1.1-0.1-1.5-0.3s-0.7-0.4-0.9-0.7s-0.4-0.6-0.5-1.1
		c-0.1-0.4-0.1-0.8-0.1-1.3c0-0.3,0-0.5,0.1-0.9s0.1-0.7,0.3-1.1c0.1-0.4,0.3-0.9,0.5-1.6c0.2-0.6,0.5-1.3,0.9-2.2
		c0,0-0.3,0.1-0.9,0.4c-0.5,0.3-1.1,0.7-1.7,1.4c-1,0.9-1.9,1.9-2.7,2.8c-0.8,0.9-1.6,2-2.4,3.1c-0.5,0.7-0.9,1.2-1.2,1.7
		c-0.3,0.5-0.6,0.8-0.9,0.9c-0.4-0.3-0.8-0.6-1-1.1c-0.2-0.5-0.4-0.9-0.5-1.4c0-0.4,0.1-0.9,0.2-1.5c0.1-0.6,0.3-1.3,0.5-2
		c0.2-0.7,0.4-1.5,0.7-2.4c0.3-0.8,0.6-1.6,1-2.5c0.8-1.9,1.5-3.3,2.2-4.4C120.8,9.8,121.2,9.2,121.4,9.1z"/>
	<path d="M133.6,18.9c0-1.2,0.2-2.4,0.7-3.5c0.5-1.1,1.1-2.1,2-3c0.8-0.9,1.7-1.6,2.8-2.1c1-0.5,2.1-0.8,3.2-0.8
		c1.1,0,1.9,0.3,2.5,0.8c0.6,0.5,0.9,1.3,0.9,2.3c0,0.5-0.1,1-0.2,1.4c-0.1,0.5-0.3,0.9-0.5,1.2c-0.2,0.4-0.5,0.6-0.8,0.9
		s-0.6,0.3-0.9,0.3c-0.3,0-0.5-0.1-0.8-0.2s-0.5-0.4-0.6-0.6c1.4-1.3,2.1-2.5,2.1-3.5c0-0.6-0.2-0.9-0.7-0.9c-0.4,0-0.9,0.2-1.6,0.6
		c-0.6,0.4-1.2,0.9-1.8,1.6c-0.9,1-1.6,2.1-2.1,3.4c-0.5,1.2-0.7,2.5-0.7,3.9c0,1.7,0.4,2.7,1.1,3.1c0.3,0,0.7-0.1,1.1-0.3
		c0.4-0.1,0.9-0.3,1.4-0.6c0.5-0.2,1-0.5,1.5-0.8c0.5-0.3,1-0.7,1.5-1c0.1,0.1,0.2,0.2,0.2,0.3c0.1,0.1,0.1,0.2,0.1,0.3
		c-0.4,0.4-0.8,0.9-1.2,1.3c-0.5,0.4-1,0.8-1.5,1.2c-0.5,0.3-1,0.6-1.5,0.9c-0.5,0.2-0.9,0.4-1.3,0.5c-0.7-0.1-1.4-0.3-2-0.6
		c-0.6-0.4-1.1-0.8-1.6-1.4s-0.8-1.3-1.1-2S133.6,19.7,133.6,18.9z"/>
	<path d="M158,11.4c-0.1,1.3-0.3,2.4-0.7,3.4s-0.9,1.8-1.6,2.5c-0.7,0.7-1.6,1.3-2.6,1.9c-1,0.6-2.2,1.1-3.5,1.6c0,0.1,0,0.3,0,0.4
		c0,0.1,0,0.3,0,0.4c0,0.3,0,0.6,0.1,0.9c0,0.3,0.1,0.6,0.2,0.8c0.1,0.3,0.3,0.5,0.4,0.6c0.2,0.2,0.4,0.2,0.7,0.2
		c0.6,0,1.1-0.1,1.7-0.4c0.5-0.3,1.1-0.6,1.6-0.9s1-0.8,1.4-1.2c0.4-0.4,0.8-0.8,1.2-1.2c0.2,0.2,0.4,0.4,0.5,0.5
		c-1,1.3-2,2.3-3.1,3.1c-1.1,0.8-2.2,1.4-3.2,1.6c-1.5-0.2-2.6-0.7-3.4-1.6c-0.8-0.9-1.2-2-1.2-3.2c0-0.9,0.1-1.7,0.4-2.6
		c0.2-0.9,0.6-1.8,1-2.6c0.4-0.8,0.9-1.6,1.5-2.4c0.6-0.7,1.2-1.4,1.9-1.9c0.7-0.5,1.4-1,2.1-1.3c0.7-0.3,1.4-0.5,2.1-0.5
		C156.2,9.7,157.2,10.3,158,11.4z M155.8,12.4c-0.6,0.1-1.2,0.3-1.8,0.7c-0.6,0.4-1.2,0.9-1.7,1.5s-1,1.4-1.5,2.2
		c-0.4,0.8-0.8,1.8-1,2.7c1.7-0.8,3.1-1.9,4.2-3.1C155.1,15.2,155.7,13.9,155.8,12.4z"/>
</g>
</svg>
