<?xml version="1.0" encoding="UTF-8"?>
<svg id="a" xmlns="http://www.w3.org/2000/svg" width="734.05" height="734.05" xmlns:xlink="http://www.w3.org/1999/xlink" viewBox="0 0 734.05 734.05">
  <defs>
    <clipPath id="b">
      <circle cx="367.02" cy="367.02" r="360.39" fill="none"/>
    </clipPath>
  </defs>
  <circle cx="367.02" cy="367.02" r="360.39" fill="#e23a52"/>
  <g clip-path="url(#b)">
    <path d="M107.5,626.55l96.82-96.82M626.55,107.5l-98.5,98.5M107.5,107.5l99.82,99.82m419.23,419.23l-99.82-99.82M367.02,0V141.16m0,451.72v141.16M0,367.02H141.16m592.88,0h-141.16m-225.86-225.86c-124.74,0-225.86,101.12-225.86,225.86s101.12,225.86,225.86,225.86,225.86-101.12,225.86-225.86-101.12-225.86-225.86-225.86Z" fill="none" stroke="#faf2e3" stroke-miterlimit="10" stroke-width="24"/>
  </g>
  <g>
    <!-- Bitcoin logo -->
    <path d="M367.02 197.64v338.77c93.5 0 169.38-75.88 169.38-169.38s-75.88-169.39-169.38-169.39zm-31.93 254.08v23.71h33.88v-23.71h16.94v23.71h33.88v-23.71h16.94c9.35 0 16.94-7.58 16.94-16.94v-33.88h-37.79v-40.65h37.79v-33.88c0-9.36-7.59-16.94-16.94-16.94h-16.94v-23.71h-33.88v23.71h-16.94v-23.71h-33.88v23.71h-33.88v33.88h16.94c9.36 0 16.94 7.58 16.94 16.94v101.63c0 9.36-7.58 16.94-16.94 16.94h-16.94v33.88h33.88v23.71h33.88v-23.71h16.94zm50.83-91.47v40.65h-50.83v-40.65h50.83z" fill="#faf2e3"/>
  </g>
</svg>