<svg xmlns="http://www.w3.org/2000/svg" width="100" height="100" viewBox="0 0 734.05 734.05">
  <circle cx="367.02" cy="367.02" r="360.39" fill="#e21a53"/>
  <path d="M367.02 0v141.16m0 451.72v141.16M0 367.02h141.16m592.88 0h-141.16m-225.86-225.86c-124.74 0-225.86 101.12-225.86 225.86s101.12 225.86 225.86 225.86 225.86-101.12 225.86-225.86-101.12-225.86-225.86-225.86Z" fill="none" stroke="#faf2e3" stroke-width="12"/>
  <path d="M367 197.64l-104 172.53 104 61.46V197.64zm0 0l104 172.53-104 61.46V197.64zm-1 253.68l-104-61.43L366 536.41v-85.09zm1 85.09v-85.09l104-61.43-104 146.52zm-1-104.78l104-61.46-104-47.26v108.72zm-104-61.46l104 61.46v-108.72l-104 47.26z" fill="#faf2e3"/>
  <text x="367" y="550" font-family="Arial, sans-serif" font-size="80" fill="#faf2e3" text-anchor="middle">SHORT</text>
  <text x="367" y="650" font-family="Arial, sans-serif" font-size="80" fill="#faf2e3" text-anchor="middle">BTC</text>
</svg>